<svg width="22" height="22" viewBox="0 0 22 22" fill="none" xmlns="http://www.w3.org/2000/svg">
<path d="M14.5234 11C14.5234 11.974 14.1797 12.8047 13.4922 13.4922C12.8047 14.1797 11.974 14.5234 11 14.5234C10.026 14.5234 9.19531 14.1797 8.50781 13.4922C7.82031 12.8047 7.47656 11.974 7.47656 11C7.47656 10.026 7.82031 9.19531 8.50781 8.50781C9.19531 7.82031 10.026 7.47656 11 7.47656C11.974 7.47656 12.8047 7.82031 13.4922 8.50781C14.1797 9.19531 14.5234 10.026 14.5234 11ZM22 6.16602V15.834C22 16.6934 21.8353 17.4954 21.5059 18.2402C21.1908 18.985 20.7539 19.6367 20.1953 20.1953C19.6367 20.7539 18.985 21.1908 18.2402 21.5059C17.4954 21.8353 16.6934 22 15.834 22H6.16602C5.30664 22 4.50456 21.8353 3.75977 21.5059C3.01497 21.1908 2.36328 20.7539 1.80469 20.1953C1.24609 19.6367 0.809245 18.985 0.494141 18.2402C0.164714 17.4954 0 16.6934 0 15.834V6.16602C0 5.30664 0.164714 4.50456 0.494141 3.75977C0.809245 3.01497 1.24609 2.36328 1.80469 1.80469C2.36328 1.24609 3.01497 0.809244 3.75977 0.494141C4.50456 0.164713 5.30664 0 6.16602 0H15.834C16.6934 0 17.4954 0.164713 18.2402 0.494141C18.985 0.809244 19.6367 1.24609 20.1953 1.80469C20.7539 2.36328 21.1908 3.01497 21.5059 3.75977C21.8353 4.50456 22 5.30664 22 6.16602ZM16.2852 11C16.2852 10.2695 16.1419 9.58203 15.8555 8.9375C15.5833 8.30729 15.2074 7.75228 14.7275 7.27246C14.2477 6.79264 13.6927 6.41667 13.0625 6.14453C12.418 5.85807 11.7305 5.71484 11 5.71484C10.2695 5.71484 9.58203 5.85807 8.9375 6.14453C8.30729 6.41667 7.75228 6.79264 7.27246 7.27246C6.79264 7.75228 6.41667 8.30729 6.14453 8.9375C5.85807 9.58203 5.71484 10.2695 5.71484 11C5.71484 11.7305 5.85807 12.418 6.14453 13.0625C6.41667 13.6927 6.79264 14.2477 7.27246 14.7275C7.75228 15.2074 8.30729 15.5833 8.9375 15.8555C9.58203 16.1419 10.2695 16.2852 11 16.2852C11.7305 16.2852 12.418 16.1419 13.0625 15.8555C13.6927 15.5833 14.2477 15.2074 14.7275 14.7275C15.2074 14.2477 15.5833 13.6927 15.8555 13.0625C16.1419 12.418 16.2852 11.7305 16.2852 11ZM18.0469 5.28516C18.0469 4.91276 17.918 4.59766 17.6602 4.33984C17.4023 4.08203 17.0872 3.95312 16.7148 3.95312C16.3568 3.95312 16.0488 4.08203 15.791 4.33984C15.5332 4.59766 15.4043 4.91276 15.4043 5.28516C15.4043 5.64323 15.5332 5.95117 15.791 6.20898C16.0488 6.4668 16.3568 6.5957 16.7148 6.5957C17.0872 6.5957 17.4023 6.4668 17.6602 6.20898C17.918 5.95117 18.0469 5.64323 18.0469 5.28516Z" fill="#009DE0"/>
</svg>
