<svg width="21" height="21" viewBox="0 0 21 21" fill="none" xmlns="http://www.w3.org/2000/svg">
<path d="M7.875 7.875H11.5049V9.74121H11.5664C11.8125 9.29004 12.2397 8.86621 12.8481 8.46973C13.4565 8.07324 14.2188 7.875 15.1348 7.875C16.1055 7.875 16.8848 8.01855 17.4727 8.30566C18.0605 8.5791 18.5186 8.96191 18.8467 9.4541C19.1748 9.94629 19.4004 10.5273 19.5234 11.1973C19.6328 11.8672 19.6875 12.5918 19.6875 13.3711V19.6875H15.8936V14.0889C15.8936 13.4189 15.8081 12.7422 15.6372 12.0586C15.4663 11.375 14.8955 11.0332 13.9248 11.0332C12.9404 11.0332 12.3184 11.3374 12.0586 11.9458C11.7988 12.5542 11.6689 13.2344 11.6689 13.9863V19.6875H7.875V7.875ZM1.3125 7.875H5.25V19.6875H1.3125V7.875ZM5.25 4.59375C5.25 5.14062 5.05859 5.60547 4.67578 5.98828C4.29297 6.37109 3.82812 6.5625 3.28125 6.5625C2.73438 6.5625 2.26953 6.37109 1.88672 5.98828C1.50391 5.60547 1.3125 5.14062 1.3125 4.59375C1.3125 4.04688 1.50391 3.58203 1.88672 3.19922C2.26953 2.81641 2.73438 2.625 3.28125 2.625C3.82812 2.625 4.29297 2.81641 4.67578 3.19922C5.05859 3.58203 5.25 4.04688 5.25 4.59375Z" fill="#009DE0"/>
</svg>
