<svg width="21" height="21" viewBox="0 0 21 21" fill="none" xmlns="http://www.w3.org/2000/svg">
<path d="M20.7949 6.2959C20.7949 6.2959 20.7334 6.0293 20.6104 5.49609C20.4873 4.96289 20.2686 4.53906 19.9541 4.22461C19.5576 3.80078 19.1577 3.55127 18.7544 3.47607C18.3511 3.40088 18.0469 3.34961 17.8418 3.32227C17.1172 3.26758 16.3242 3.22656 15.4629 3.19922C14.6016 3.17188 13.8052 3.15137 13.0737 3.1377C12.3423 3.12402 11.7305 3.11719 11.2383 3.11719C10.7461 3.11719 10.5 3.11719 10.5 3.11719C10.5 3.11719 10.2539 3.11719 9.76172 3.11719C9.26953 3.11719 8.65771 3.12402 7.92627 3.1377C7.19482 3.15137 6.39844 3.17188 5.53711 3.19922C4.67578 3.22656 3.88281 3.26758 3.1582 3.32227C2.95312 3.34961 2.64893 3.40088 2.24561 3.47607C1.84229 3.55127 1.44238 3.80078 1.0459 4.22461C0.731445 4.53906 0.512695 4.96289 0.389648 5.49609C0.266602 6.0293 0.205078 6.2959 0.205078 6.2959C0.205078 6.2959 0.170898 6.65137 0.102539 7.3623C0.0341797 8.07324 0 8.85254 0 9.7002V11.2998C0 12.1475 0.0341797 12.9233 0.102539 13.6274C0.170898 14.3315 0.205078 14.6836 0.205078 14.6836C0.205078 14.6836 0.266602 14.9536 0.389648 15.4937C0.512695 16.0337 0.731445 16.4609 1.0459 16.7754C1.44238 17.1992 1.86963 17.4453 2.32764 17.5137C2.78564 17.582 3.13086 17.6367 3.36328 17.6777C3.78711 17.7188 4.39551 17.7529 5.18848 17.7803C5.98145 17.8076 6.771 17.8281 7.55713 17.8418C8.34326 17.8555 9.03027 17.8691 9.61816 17.8828C10.2061 17.8828 10.5 17.8828 10.5 17.8828C10.5 17.8828 10.7461 17.8828 11.2383 17.8828C11.7305 17.8828 12.3423 17.8726 13.0737 17.8521C13.8052 17.8315 14.6016 17.8076 15.4629 17.7803C16.3242 17.7529 17.124 17.7119 17.8623 17.6572C18.0674 17.6436 18.3682 17.5991 18.7646 17.5239C19.1611 17.4487 19.5576 17.1992 19.9541 16.7754C20.2686 16.4609 20.4873 16.0337 20.6104 15.4937C20.7334 14.9536 20.7949 14.6836 20.7949 14.6836C20.7949 14.6836 20.8291 14.3315 20.8975 13.6274C20.9658 12.9233 21 12.1475 21 11.2998V9.7002C21 8.85254 20.9658 8.07324 20.8975 7.3623C20.8291 6.65137 20.7949 6.2959 20.7949 6.2959ZM8.32617 13.2275V7.32129L14.0068 10.2744L8.32617 13.2275Z" fill="#009DE0"/>
</svg>
