<?xml version="1.0" encoding="UTF-8"?>
<svg xmlns="http://www.w3.org/2000/svg" baseProfile="tiny" version="1.2" viewBox="0 0 500 500">
  <!-- Generator: Adobe Illustrator 28.6.0, SVG Export Plug-In . SVG Version: 1.2.0 Build 709)  -->
  <g>
    <g id="Calque_1">
      <g>
        <path d="M250,0C183.2,0,120.5,26,73.3,73.2,26,120.4,0,183.2,0,250s26,129.5,73.2,176.7c47.2,47.2,110,73.2,176.8,73.2s129.5-26,176.7-73.2c47.2-47.2,73.2-110,73.2-176.7s-26-129.5-73.2-176.7C379.5,26,316.8,0,250,0" fill="#fff"/>
        <rect x="27.6" y="292.8" width="444.9" height="2.6" fill="#e1251b"/>
        <polygon points="103.4 235.4 122.8 235.4 103.4 222.5 84 235.4 103.4 235.4" fill="#e1251b"/>
        <polygon points="396.6 222.5 416 222.5 396.6 235.4 377.2 222.5 396.6 222.5" fill="#e1251b"/>
        <g>
          <path d="M392.2,359.4c-1.2,3.9-3.3,8.4,2.2,8.7,3.6.2,8.4-2,11-3.5,2-1.1,2.2-1.9,1.9-3.6,0-.6-.6-1-1.2-.7-.9.3-1.9,1-3.4,1.6-2.1.9-4.2,1.3-5.4,1.1-2.2-.4.9-6,1.6-9.4,1.2-6.5-3.4-7.1-9.8-8.6,0,0-.7-2.1-2-2.3-2.5-.5-4.4,1.9-3.2,4.4.3.8.8,1.3,1.4,1.6-.3.8-1.2,3.2-1.5,3.9-3.8,8.8-7,11.8-9.1,11.4-2-.4-1-7.4.5-12.9,1.3-4.6,1.7-5.9.8-6.5-1-.7-5-1-6.8,2-1.6,2.6-9.5,16.9-14.4,16.2-3.1-.4,4-13.6,5.6-16.8.9-1.9-1.1-3-2.9-2.6-.7.1-1.3.5-1.8,1-3.5,3-12.5,19-21.3,19.8-2.8.2-3.6-1.2-3.5-1.2,10.4-4.6,12.8-11.4,12.6-14.3-.2-2.6-2.3-5.3-5.9-5.4-1.5,0-2.6.2-4.2.9-5.9,2.7-9,11.3-8.2,17.3,0,0-4.1,2.1-6.4,2.5-1.4.2-1.2-1.2-.9-2.9,1-4.5,2.1-7.5,2.6-10.5.2-1.3.5-2.8.3-4-.2-1.8-1.7-2.9-3.6-2.6-2.6.3-8.1,7.7-13.1,13,0,0,0,0,0,0,1.5-5.7,2.9-12.7-.5-12.7-4.7,0-12.8,19.2-16.9,19.2s4.5-19.4-1.8-19.4-13.3,11.8-15.1,14.5c0,.1,0,.1,0,0,1.4-3,6.5-14.9,1-14.9s-6.1.3-12.4,2.7c-1.1-.7-2.6-1.2-4.4-1.1-6.4.3-15.8,7.4-16,16.1-4.1,2.4-10.2.3-5.3-8.5,1.3-2.5,11.7-20,12.8-22.2.7-1.3,1.7-2.4,1-4.2-.4-1-1-2-2-2.1-1.1-.1-2.7,2.6-2.9,3.1-1.2,1.9-9.2,15-9.6,15.7-.4.6-.8,1.3-1.2,2.1-1-1.7-3-3.1-6.4-3.1-6.4,0-17.9,11-17.6,20.1.1,2.6,1.7,6.3,7.6,6.3s9-3.4,12-7.7c0,0,0,0,0,0,.2,3,1.9,5.3,3.6,6.1,3.1,1.5,6.9-.1,8.8-1.6,1,1.7,2.9,3,6.4,3,8.8,0,16.8-10.3,15.7-18.5,0-.2,0-.4-.2-.5,2.6-.8,5.7-1.1,7.1-1-1.6,5.4-6.4,19.1-2.3,19.1,3.8,0,13.6-15.6,15.2-15.5,2.5.1-3,16.4,4.1,16.4s15-14.8,16.1-16.7c0-.1,0,0,0,0-2.1,9.1-3.2,15.3-.7,15.3s7.4-7.8,14.7-16.5c0,0,0,0,0,0-.6,2.5-2.5,10.8-2.6,14.4,0,2.8,2,3.8,4.8,3.5,2.1-.2,5-1.2,9.3-3.4.9,2.4,4.3,4.3,7.3,4.1,6.4-.6,12.7-6.7,18.2-13.8,0-.1.1-.2,0,0-1,2.2-5.3,13,1.7,13.5,9,.6,15.2-14.5,16.2-16.4,0-.1,0,0,0,0-3.5,13.4,0,16.2,4.5,16.2,9.5,0,13.9-18.7,13.9-18.7,1.5.2,5.1.8,5.4,3.6.1,1.2-1,4-1.7,6.3M214.8,362.2c-1.3,0-2.5-.6-2.7-2.2-.4-5.6,8-14.3,12.1-14.7,1.8-.2,3.3.8,3.5,2.4.4,2.9-8.8,14.5-13,14.5M245.6,362.8c-1.3,0-2.5-.9-2.6-2.5-.3-4.7,6-10.5,10.1-11.9-.2.7-.2,2,.6,2.9.8.9,2,1.1,2.8.9,1-.2,1.6-.4,1.8-.6-2.4,8.4-8.9,11.4-12.7,11.1M338.8,346.4c3.3,1.7-2,9.4-9.2,12.9.3-8.3,6.5-14.3,9.2-12.9" fill="#e1251b"/>
          <path d="M174,352.9c-3.6,8.7-5,15.2,1.4,15.2s7.8-1.7,10.7-3.3c2-1.1,2.6-1.6,2.2-3.3-.2-.9-.8-1.1-1.4-1-1.2.3-1.8.6-3.5,1.2-2.5,1-6.2,1.9-7.4,1.3-1.7-.9,1.6-7,3.8-12.4,1.7-4.2,1.8-6,.9-6.6-1-.7-3.6-1.1-6.1,1.8-2,2.3-11.5,16.9-15.2,15.9-3.3-.8,3.8-12,5.3-15.1.9-1.9-.4-3.3-2.4-2.6-1.7.6-6.8,6.8-16.1,9.1,2.2-2.4,4.8-6.3,4.8-12.4,0-12.5-14.4-21.8-35.1-20.6-7.6.4-19.3,2.5-21.7,4.8-.4.4-.5.9-.5,1.4,0,1.3.3,2.3.3,2.3l4.8-1.2c3-.6,11.1-2.7,18.5-2.6.6,0,1.1,0,1.6,0,0,0-14.7,25.7-15.9,29.7-.4,1.4-.5,2.8.1,4.1,1.1,1.9,3.1,1.1,3.3-.2.1-.8.5-1.6.9-2.3.8-1.5,16.9-30,17-30,9.2.7,19.6,5.6,19.6,16,0,16.9-39.5,23.2-46.8,23.2s-4.4.3-4.5,1.5c0,.8-.3,2.6,7,2.4,8.9-.2,16.2-2.1,21.4-3.2,6.5-1.3,24.2-7.5,35.4-12.7,1-.4-8.2,15.2,1.5,15.2s14.9-13.2,16.2-15.6c0,0,0,0,0,0" fill="#e1251b"/>
          <path d="M164.8,402.3c1.5-4.7,1.9-6.4.9-7-1-.7-3.9-.7-6.2,2,0,0,0,0-.1.1-2.2,3-8.5,16-13.7,15.4-2.7-.3,2.9-12.2,4.5-15.7.9-2.1-.7-3.5-2.7-2.9-.7.2-1.1.5-1.8,1.1-4,3.4-10.4,17.1-15.6,17.1s-1.7-3.9,1.4-10.5c.6-1.3,2.1-4.5,1.7-5.6-.7-1.9-2-2.3-2-2.3-.9-.2-2.1,1.8-2.9,3.3-1-1.9-3.1-3.2-6.4-3.2-5.4,0-15.3,7.9-14.9,18,0,2.9,1.5,7.1,7.4,7.1s7.5-2.7,10.3-6.4c0,4.1,1.8,6.1,4.2,6,0,0,.9,0,1.9-.4,1.5-.6,3.1-1.7,4.6-3.4,4.1-4.2,7.6-10.4,8.1-10.6,1-.5-6.5,14.6,1.8,14.6s13.3-12.4,14.5-15c0,0,0,0,0,0-2.7,8-2.2,14.7,4.2,15.6,4.3.6,9.4-.8,15.1-6.2,2.6,9.8,13.4,5.3,17,.9,1.5-1.9,1.3-2.9.9-3.6-.5-.8-1.4-.9-3,.4-2.6,2.1-5.8,4.3-8.1,3.9-6.7-1,.3-15.6,10.8-15.3,3.6,0,.9-4.3-2.5-4.3s-8.8,4.5-10.6,7.4c.2-7-7-10.1-12.9-4-1.5,1.6-2.7,3.4-1.7,5.4.6,1.4,2.8,1.2,3.7,0,3.6-5.4,6.4-5.5,6.5-.9,0,6.6-6.3,12.2-12.4,12-4.5-.2-4.2-4.8-1.7-12.6M115,413.2c-1.3,0-2.8-1.1-2.9-2.8-.4-6,6.3-13.1,10.6-13.1s3.6,1.2,3.9,2.9c.4,3.1-7.2,13-11.6,13" fill="#e1251b"/>
          <path d="M300.9,391.2c-1.6-.3-2.8.4-3,1.8-.2,1.4.6,2.3,2,2.6,1.5.3,3.2-.1,3.5-1.9.2-1.1-.9-2.3-2.6-2.6" fill="#e1251b"/>
          <path d="M378,396.4c-1-.1-3.3-.2-4.1.9-2.3,3.8-8.1,17-13,17s-3.2-2.6-.8-9.5c1.6-4.5,4.1-9.9,6.3-14.8.2-.5.4-1,.8-1.1,3.3-.3,11.4-.8,13.8-2.6.3-.3.7-.7.7-1.2,0-.5-.8-.6-1.2-.7-1.9,0-3.8.1-5.6.1-3.5,0-2.3,0-5.8,0,.9-1.9,1.8-3.7,2.7-5.5.7-1.3.2-2.4-1-2.7-.8-.2-2,.3-2.7,1.4-.4.7-3.6,6.1-4,6.6-.5.2-5.3.2-7.4.1-1.4,0-1.9.7-1.3,2,.5,1,1.7,1.7,3.1,2,.9.2,2.5.1,3.7.2,0,0-5.8,11.1-8.4,17.7-.6,1.4-.9,2.7-1.1,4-2.1,2-3.4,2.4-4.3,2.4-2.3,0-1.2-5-.6-9.6.2-1.3.5-2.8.3-4-.4-2.5-2.2-4.1-4.9-2.4-1.3.8-2.3,1.8-3.7,3.2-1.2,1.2-10.5,11-10,9.9,4.2-7,5.7-12.3,2.9-12.3s-8.9,18.2-19.7,18.2-3.4-1.7-3.4-1.7c9.8-4.4,12.3-10.5,12.3-13.5s-2.2-5.4-5.7-5.4-2.6.3-4.2.9c-6,2.5-8.8,10.6-8,16.5,0,0-4.5,1.9-5.8,1.9-3.6,0-2-5.5-.4-9.7,1-2.6.9-2.2,1.3-3.1.9-1.8.7-2.4.2-3-.5-.5-1.6-1.7-2.6-.4-1.8,2.5-4.6,8.5-5.5,12.9-1.8,1.5-6.1,3.3-7.6,3.3-3.6,0-1.9-5.5-.4-9.7,1.7-4.4,4.1-9.9,6.3-14.8.2-.5.4-1,.8-1.1,3.3-.2,11.4-.8,13.8-2.6.3-.3.7-.7.7-1.2,0-.5-.8-.6-1.2-.7-1.9,0-3.8.1-5.6.1-3.5,0-2.3,0-5.8,0,.9-1.9,1.8-3.7,2.7-5.5.6-1.3-.2-2.3-1.1-2.6-.8-.3-1.9.2-2.7,1.4-.5.9-3.5,5.8-4,6.6-.5.2-5.3.2-7.4.1-1.4,0-1.9.7-1.3,2,.5,1,1.8,1.7,3.1,2,.9.2,2.7,0,3.7.2,0,0-5.8,11.1-8.4,17.7-.4,1-.7,2-.9,2.9-3.3,3.4-4.8,3.6-5.9,3.5-1.6-.2-2.4-4.3.7-10.2.6-1.2,2.1-4,1.7-5-.6-1.6-1.8-1.8-1.8-1.8-.9-.1-2.1,1.6-2.8,2.9-1-1.7-3.1-3-6.3-3-5.2,0-14.7,7.8-14.6,16.6-1.9,1.2-4.5,2.6-5.4.8-1.2-2.4,8.5-17.2,0-17.6-2.9-.1-5.6,1.4-8.1,3.3.7-2.3,1.6-5.7,1.6-6.2,0-1.4-1.3-2.4-2.4-2.5-.7,0-1.2,0-1.9,1-.8,1.1-3,4.1-3.9,5.1-3.1,3.7-6.5,7.3-14.1,13-1.1.8-1.5,1.6-.7,2.7.9,1.2,2.1,1,3.7.4,2.4-.9,9-5.6,10.9-8.5,0,.6-.1,1.1-.5,1.7-3.9,7.4-7.7,14.1-11.1,20.1-1.4,2.4-2.3,4.1-3.5,6.6-.6,1.3-.2,2.4,1,3.1,1.2.8,2.6,0,3.1-1.1.9-1.7,1.7-3.4,2.7-5,3.8-7,8.7-15.1,12.3-21.4,3.5-5.1,5.5-7.5,8.4-7.5,4.6,0-2.1,8.9-2.9,13.3-1.5,8.5,7.1,5,11.7,2.4,1,1.6,2.8,3,6.3,3s7.4-2.4,10.2-5.8c.1,7.2,6.9,6.7,11.5.9.7,2.7,2.8,4.4,6.6,4.4s7.5-3,8.5-3.9c1.3,3.6,4.4,3.9,6.1,3.9,3.2,0,8.4-3,8.4-2.9,1.6,2.8,4.9,4,7.9,3.8,4-.3,7.9-2.8,11.5-6.5,0,0,0,0,0,0-.4.8-2.6,5.5,1.4,5.5s2.2-.9,2.8-1.5c5.8-5.8,13.9-14.2,14.5-14.7-.6,2.4-1.1,9.5-.9,11.8.4,6.2,6.5,5.7,10.9.7.3.7.7,1.3,1.1,1.7,1.1,1.2,3.1,2.2,5.8,2.1,9.3-.1,17-18.2,17-18.2,0,0,2.2,6.8,4.3,12,.6,1.5,0,2.2-1,2.6-3.2,1.1-5.9-1.6-6.5-2.1-.4-.3-1.5,1.9-1.5,2.8,0,1.5,2.4,3.7,5.6,3.7,6.6.1,7.7-4.1,6.5-8.5-.8-3.1-2.5-8.9-3.8-12.3-.6-1.7-1.7-2.1-2.6-2.2M254.4,414c-1.3,0-2.7-1.1-2.8-2.6-.4-5.5,6.5-12.4,10.7-12.4s3.1.6,3.3,2.2c.4,2.9-7,12.8-11.2,12.8M316.9,398.4c3.2,1.7-1.7,8.8-8.8,12.3.3-8.2,6.2-13.7,8.8-12.3" fill="#e1251b"/>
          <polygon points="304.5 288.9 306.2 285 309.2 285 307.5 288.9 304.5 288.9" fill="#00205c"/>
          <polygon points="233.3 283.6 233.3 265.1 245.7 265.1 245.7 268.2 237.4 268.2 237.4 272.5 244.3 272.5 244.3 275.6 237.4 275.6 237.4 283.6 233.3 283.6" fill="#00205c"/>
          <path d="M252.4,273.1h2.1c1.8,0,2.9-.7,2.9-2.5s-1.1-2.5-2.9-2.5h-2.1v5.1ZM257.9,283.6l-3.5-7.5h-1.9v7.5h-4.1v-18.4h5.9c4.9,0,7.2,2.1,7.2,5.5s-.9,3.9-3.2,4.7l4,8.2h-4.4Z" fill="#00205c"/>
          <path d="M269.7,276.6h4l-2-7.5h0l-2,7.5ZM263.9,283.6l5.3-18.5h5.2l5.1,18.5h-3.9l-1-3.9h-5.6l-1.2,3.9h-3.9Z" fill="#00205c"/>
          <polygon points="282.2 283.6 282.2 265.1 286.6 265.1 292.3 276.1 292.3 276.1 292.3 265.1 296.1 265.1 296.1 283.6 292.2 283.6 286 271.7 285.9 271.7 285.9 283.6 282.2 283.6" fill="#00205c"/>
          <path d="M304.1,278.1c0,2,1,2.6,2.6,2.6s2.7-.6,2.7-2.6v-1.2h4.1v.8c0,4.5-2.8,6.2-6.7,6.2s-6.7-1.7-6.7-6.2v-6.6c0-4.6,2.8-6.2,6.7-6.2s6.7,1.6,6.7,6.2h0s-4.1,0-4.1,0v-.5c0-2-1-2.6-2.7-2.6s-2.6.6-2.6,2.6v7.5Z" fill="#00205c"/>
          <path d="M320.9,276.6h4l-2-7.5h0l-2,7.5ZM315.1,283.6l5.3-18.5h5.2l5.1,18.5h-3.9l-1-3.9h-5.6l-1.2,3.9h-3.9Z" fill="#00205c"/>
          <rect x="332.9" y="265.1" width="4.1" height="18.4" fill="#00205c"/>
          <path d="M349.6,270.3c-.7-1.8-1.6-2.5-3-2.5s-2.2.8-2.2,2c0,2.8,9,3,9,8.7s-2.5,5.3-6.8,5.3-5.9-1.6-6.9-5.2l4-.7c.5,2.2,1.9,3,3.1,3s2.5-.8,2.5-2.2c0-3.5-9.1-3.5-9.1-8.7s2.2-5.2,6.4-5.2,5.8,1.8,6.5,4.5l-3.6.9Z" fill="#00205c"/>
          <path d="M369,280.4h1.4c2.2,0,3.5-.9,3.5-3.7v-4.9c0-2.6-1-3.7-3.5-3.7h-1.4v12.2ZM364.9,265.1h5.7c4.7,0,7.2,1.7,7.4,6.4v5.6c-.2,4.7-2.8,6.4-7.4,6.4h-5.7v-18.5Z" fill="#00205c"/>
          <path d="M385.8,265.1v12.9c0,1.8.9,2.7,2.9,2.7s2.9-.9,2.9-2.7v-12.9h4v12.9c0,4-2.8,5.8-6.9,5.8s-6.9-1.7-6.9-5.8v-12.9h4.1Z" fill="#00205c"/>
          <path d="M416.9,270.3c-.7-1.8-1.6-2.5-3-2.5s-2.2.8-2.2,2c0,2.8,9.1,3,9.1,8.7s-2.5,5.3-6.8,5.3-5.9-1.6-6.9-5.2l4-.7c.5,2.2,1.9,3,3.1,3s2.5-.8,2.5-2.2c0-3.5-9.1-3.5-9.1-8.7s2.2-5.2,6.4-5.2,5.8,1.8,6.5,4.5l-3.6.9Z" fill="#00205c"/>
          <path d="M427.9,276.6h4l-2-7.5h0l-2,7.5ZM422.1,283.6l5.3-18.5h5.2l5.1,18.5h-3.9l-1-3.9h-5.6l-1.1,3.9h-3.9Z" fill="#00205c"/>
          <polygon points="440.9 283.6 440.9 265.1 445.4 265.1 451 276.1 451.1 276.1 451.1 265.1 454.8 265.1 454.8 283.6 450.9 283.6 444.7 271.7 444.6 271.7 444.6 283.6 440.9 283.6" fill="#00205c"/>
          <path d="M465.2,283.8c-3.6-.2-6.1-1.9-6.1-6.1v-6.6c0-4.6,2.8-6.2,6.7-6.2s6.4,2.1,6.5,6.2h-4.1c0-2.4-1-3.1-2.5-3.1s-2.7.6-2.7,2.6v7.5c0,2.1,1,2.6,2.7,2.6s2.5-1,2.5-2.5v-1.1h-2.8v-3.7h6.9v4.2c0,1.3-.1,6.3-7.2,6.3" fill="#00205c"/>
          <polygon points="232.8 146 280.5 146 280.5 153.3 245.6 153.3 245.6 184.3 277.3 184.3 277.3 191.6 245.6 191.6 245.6 235.4 232.8 235.4 232.8 146" fill="#00205c"/>
          <path d="M338,151.1s-8.4-6.3-20.8-6.3-26.8,6.1-26.8,22.7c0,24.7,38.3,23.6,38.3,45.4s-6.6,16.7-15.6,16.7-13.5-1.6-22.9-11.7v10.6s9.5,8.1,23.4,8.1,27.9-9,27.9-25.1c0-30-38.8-28.9-38.8-47s10.5-12.8,14.9-12.8,11,.2,20.3,8.1v-8.6Z" fill="#00205c"/>
          <polygon points="179 228.2 179 191.5 210.1 191.5 210.1 184.3 179 184.3 179 153.2 213.4 153.2 213.4 146 166.2 146 166.2 235.4 214.9 235.4 214.9 228.2 179 228.2" fill="#00205c"/>
          <path d="M250.1,70.4c-77.2,0-141.5,59-147.1,142.5h.7c5.8-51.3,52.6-132.5,146.4-132.5s140.5,81.1,146.4,132.5h.7c-5.6-83.5-69.9-142.5-147.1-142.5" fill="#00205c"/>
          <polygon points="38.1 258.3 34.7 262.7 31.8 262.7 33.5 258.3 38.1 258.3" fill="#00205c"/>
          <polygon points="27.6 283.6 27.6 265.1 38.7 265.1 38.7 268.3 31.6 268.3 31.6 272.5 37 272.5 37 275.6 31.6 275.6 31.6 280.4 39 280.4 39 283.6 27.6 283.6" fill="#00205c"/>
          <polygon points="54.9 265.1 54.9 268.3 50.1 268.3 50.1 283.6 46.1 283.6 46.1 268.3 41.3 268.3 41.3 265.1 54.9 265.1" fill="#00205c"/>
          <path d="M60.8,276.6h4l-2-7.5h0l-2,7.5ZM55,283.6l5.3-18.5h5.2l5.1,18.5h-3.9l-1-3.9h-5.6l-1.1,3.9h-3.9Z" fill="#00205c"/>
          <path d="M77.2,280.7h1.7c2.1,0,3.2-1.1,3.2-2.7s-1.4-2.6-3.5-2.6h-1.4v5.3ZM77.2,272.5h1.4c1.8,0,3-.9,3-2.2s-.9-2.2-2.8-2.2h-1.6v4.4ZM73.1,265.1h5.7c4.4,0,6.9,1.6,6.9,4.8s-.9,2.9-2.6,3.8c2.3,1.2,3.1,2.2,3.1,4.5,0,3.6-2.8,5.3-7.1,5.3h-5.9v-18.4Z" fill="#00205c"/>
          <polygon points="88.9 283.6 88.9 265.1 93 265.1 93 280.4 99.5 280.4 99.5 283.6 88.9 283.6" fill="#00205c"/>
          <rect x="102.5" y="265.1" width="4.1" height="18.4" fill="#00205c"/>
          <path d="M119,270.3c-.7-1.8-1.6-2.5-3-2.5s-2.2.8-2.2,2c0,2.8,9.1,3,9.1,8.7s-2.5,5.3-6.8,5.3-5.9-1.6-6.9-5.2l4-.7c.5,2.2,1.9,3,3.1,3s2.5-.8,2.5-2.2c0-3.5-9.1-3.5-9.1-8.7s2.2-5.2,6.4-5.2,5.8,1.8,6.5,4.5l-3.6.9Z" fill="#00205c"/>
          <path d="M134.3,270.3c-.7-1.8-1.6-2.5-3-2.5s-2.2.8-2.2,2c0,2.8,9.1,3,9.1,8.7s-2.5,5.3-6.8,5.3-5.9-1.6-7-5.2l4-.7c.5,2.2,1.9,3,3.2,3s2.5-.8,2.5-2.2c0-3.5-9.1-3.5-9.1-8.7s2.2-5.2,6.4-5.2,5.8,1.8,6.5,4.5l-3.7.9Z" fill="#00205c"/>
          <polygon points="141.3 283.6 141.3 265.1 152.5 265.1 152.5 268.2 145.4 268.2 145.4 272.5 150.8 272.5 150.8 275.6 145.4 275.6 145.4 280.4 152.8 280.4 152.8 283.6 141.3 283.6" fill="#00205c"/>
          <polygon points="155.8 283.6 155.8 265.1 161 265.1 164.4 275.5 164.5 275.5 167.9 265.1 173.2 265.1 173.2 283.6 170 283.6 170 269.1 169.9 269.1 165.9 279.8 163.1 279.8 159 269.1 159 269.1 159 283.6 155.8 283.6" fill="#00205c"/>
          <polygon points="176.7 283.6 176.7 265.1 187.8 265.1 187.8 268.2 180.7 268.2 180.7 272.5 186.1 272.5 186.1 275.6 180.7 275.6 180.7 280.4 188.1 280.4 188.1 283.6 176.7 283.6" fill="#00205c"/>
          <polygon points="191.4 283.6 191.4 265.1 195.9 265.1 201.5 276.1 201.6 276.1 201.6 265.1 205.3 265.1 205.3 283.6 201.4 283.6 195.2 271.7 195.1 271.7 195.1 283.6 191.4 283.6" fill="#00205c"/>
          <polygon points="221.9 265.1 221.9 268.3 217.1 268.3 217.1 283.6 213.1 283.6 213.1 268.3 208.3 268.3 208.3 265.1 221.9 265.1" fill="#00205c"/>
        </g>
      </g>
      <g id="EFS_x5F_Filet_x5F_P">
        <g>
          <path d="M250,3.6c-65.8,0-127.7,25.6-174.2,72.2C29.2,122.3,3.6,184.2,3.6,250s25.6,127.7,72.2,174.2c46.5,46.5,108.4,72.2,174.2,72.2s127.7-25.6,174.2-72.2c46.5-46.5,72.2-108.4,72.2-174.2s-25.6-127.7-72.2-174.2C377.6,29.2,315.8,3.6,250,3.6" fill="#fff"/>
          <rect x="30.7" y="292.2" width="438.5" height="2.6" fill="#e1251b"/>
          <polygon points="105.5 235.6 124.6 235.6 105.5 222.9 86.4 235.6 105.5 235.6" fill="#e1251b"/>
          <polygon points="394.4 222.9 413.5 222.9 394.4 235.6 375.3 222.9 394.4 222.9" fill="#e1251b"/>
          <g>
            <path d="M390.1,357.9c-1.2,3.9-3.2,8.3,2.1,8.6,3.5.2,8.2-2,10.8-3.5,2-1.1,2.2-1.9,1.9-3.6,0-.6-.6-1-1.2-.7-.9.3-1.9,1-3.3,1.6-2.1.9-4.1,1.3-5.3,1.1-2.2-.4.9-5.9,1.5-9.3,1.2-6.4-3.3-7-9.6-8.5,0,0-.6-2-1.9-2.3-2.4-.5-4.3,1.9-3.2,4.4.3.8.8,1.3,1.4,1.6-.3.8-1.2,3.1-1.5,3.9-3.7,8.7-6.9,11.6-8.9,11.2-1.9-.4-1-7.3.5-12.7,1.3-4.5,1.7-5.8.8-6.4-1-.6-5-1-6.7,2-1.6,2.6-9.4,16.6-14.2,16-3.1-.4,4-13.4,5.5-16.5.9-1.9-1.1-2.9-2.9-2.6-.7.1-1.3.5-1.8,1-3.5,3-12.4,18.8-21,19.5-2.8.2-3.5-1.2-3.5-1.2,10.3-4.6,12.6-11.3,12.4-14.1-.1-2.5-2.3-5.3-5.8-5.3-1.4,0-2.6.2-4.1.9-5.8,2.7-8.9,11.1-8.1,17,0,0-4,2.1-6.3,2.4-1.4.2-1.2-1.2-.9-2.8,1-4.4,2-7.4,2.5-10.3.2-1.3.5-2.8.3-3.9-.2-1.7-1.7-2.8-3.6-2.6-2.5.3-8,7.6-12.9,12.9,0,0,0,0,0,0,1.4-5.6,2.8-12.5-.5-12.6-4.6,0-12.6,18.9-16.7,18.9s4.4-19.2-1.8-19.2-13.1,11.7-14.9,14.3c0,.1,0,.1,0,0,1.4-2.9,6.4-14.7,1-14.7s-6,.3-12.2,2.6c-1.1-.7-2.5-1.2-4.3-1.1-6.3.3-15.5,7.3-15.8,15.8-4.1,2.3-10.1.2-5.2-8.4,1.3-2.5,11.5-19.8,12.7-21.9.7-1.2,1.6-2.4,1-4.1-.4-1-1-2-2-2.1-1-.1-2.6,2.5-2.9,3-1.1,1.9-9.1,14.8-9.5,15.4-.4.6-.8,1.3-1.2,2.1-1-1.7-3-3.1-6.3-3.1-6.3,0-17.6,10.8-17.3,19.8.1,2.5,1.7,6.2,7.5,6.2s8.9-3.3,11.8-7.6c0,0,0,0,0,0,.2,2.9,1.9,5.2,3.6,6,3,1.5,6.8-.1,8.7-1.6,1,1.6,2.8,3,6.3,3,8.7,0,16.5-10.2,15.4-18.3,0-.2,0-.4-.2-.5,2.6-.8,5.6-1.1,7-1-1.6,5.3-6.3,18.8-2.3,18.8,3.7,0,13.4-15.4,15-15.3,2.5.1-3,16.2,4,16.2s14.8-14.6,15.9-16.5c0-.1,0,0,0,0-2.1,9-3.1,15-.6,15s7.3-7.7,14.5-16.2c0,0,0,0,0,0-.6,2.5-2.4,10.6-2.5,14.2,0,2.7,2,3.7,4.8,3.4,2.1-.2,5-1.2,9.2-3.4.9,2.4,4.3,4.3,7.2,4,6.3-.5,12.5-6.6,17.9-13.6,0-.1.1-.1,0,0-1,2.2-5.2,12.8,1.7,13.3,8.9.6,15-14.3,15.9-16.1,0-.1,0,0,0,0-3.4,13.2,0,16,4.4,15.9,9.4,0,13.7-18.4,13.7-18.4,1.5.2,5,.8,5.3,3.6.1,1.2-1,3.9-1.7,6.3M215.2,360.6c-1.3,0-2.5-.6-2.6-2.2-.4-5.5,7.8-14.1,12-14.5,1.8-.2,3.3.8,3.5,2.4.4,2.9-8.6,14.3-12.8,14.3M245.6,361.2c-1.3,0-2.5-.9-2.6-2.5-.3-4.6,5.9-10.3,10-11.7-.2.7-.2,2,.6,2.9.8.9,2,1.1,2.8.9,1-.2,1.5-.4,1.8-.5-2.4,8.3-8.8,11.2-12.6,11M337.5,345.1c3.2,1.7-2,9.3-9,12.7.3-8.2,6.4-14.1,9-12.7" fill="#e1251b"/>
            <path d="M175.1,351.5c-3.5,8.6-4.9,15,1.4,15s7.7-1.7,10.5-3.2c2-1.1,2.6-1.6,2.2-3.2-.2-.9-.8-1.1-1.4-1-1.1.3-1.7.5-3.4,1.2-2.5,1-6.2,1.8-7.3,1.2-1.7-.9,1.6-6.9,3.8-12.2,1.7-4.1,1.8-5.9.9-6.5-1-.6-3.5-1.1-6,1.8-2,2.3-11.3,16.6-15,15.7-3.2-.8,3.7-11.8,5.2-14.9.9-1.9-.4-3.3-2.3-2.6-1.7.6-6.7,6.7-15.9,9,2.2-2.4,4.7-6.2,4.7-12.2,0-12.3-14.2-21.5-34.6-20.3-7.5.4-19,2.4-21.4,4.7-.4.4-.5.9-.5,1.4,0,1.3.3,2.2.3,2.2l4.7-1.2c3-.6,11-2.7,18.3-2.6.6,0,1.1,0,1.6,0,0,0-14.5,25.3-15.7,29.3-.4,1.4-.5,2.7.1,4,1.1,1.9,3.1,1.1,3.2-.2.1-.8.5-1.6.9-2.3.8-1.4,16.7-29.6,16.8-29.6,9,.7,19.4,5.5,19.4,15.7,0,16.6-38.9,22.9-46.1,22.9s-4.4.2-4.5,1.4c0,.8-.3,2.5,6.9,2.4,8.8-.2,15.9-2.1,21.1-3.2,6.4-1.3,23.9-7.4,34.9-12.5.9-.4-8.1,15,1.5,15s14.7-13,15.9-15.4c0,0,0,0,0,0" fill="#e1251b"/>
            <path d="M166,400.2c1.5-4.6,1.8-6.3.9-6.9-1-.7-3.9-.7-6.1,2,0,0,0,0-.1.1-2.2,2.9-8.4,15.8-13.5,15.1-2.7-.3,2.9-12,4.4-15.5.9-2.1-.7-3.5-2.7-2.9-.7.2-1.1.4-1.8,1.1-4,3.3-10.3,16.9-15.4,16.9s-1.7-3.9,1.4-10.4c.6-1.3,2.1-4.4,1.7-5.5-.7-1.9-2-2.3-2-2.3-.9-.2-2.1,1.7-2.8,3.2-1-1.9-3-3.1-6.3-3.1-5.3,0-15.1,7.8-14.7,17.7,0,2.8,1.4,7,7.3,7s7.4-2.7,10.2-6.4c0,4.1,1.8,6,4.2,5.9,0,0,.9,0,1.9-.4,1.5-.6,3.1-1.7,4.5-3.4,4-4.1,7.5-10.2,8-10.5.9-.5-6.4,14.4,1.7,14.4s13.1-12.2,14.3-14.8c0,0,0,0,0,0-2.6,7.9-2.2,14.5,4.1,15.4,4.2.6,9.3-.8,14.9-6.1,2.6,9.6,13.2,5.2,16.8.9,1.5-1.8,1.3-2.9.9-3.5-.5-.8-1.4-.9-2.9.4-2.5,2.1-5.7,4.2-8,3.9-6.6-1,.3-15.4,10.6-15.1,3.6,0,.9-4.3-2.4-4.3s-8.7,4.4-10.4,7.3c.2-6.9-6.9-10-12.7-3.9-1.5,1.5-2.6,3.4-1.7,5.3.6,1.4,2.8,1.2,3.6,0,3.6-5.4,6.4-5.4,6.4-.8,0,6.5-6.2,12-12.2,11.8-4.5-.2-4.1-4.8-1.7-12.4M116.9,410.9c-1.3,0-2.7-1.1-2.8-2.8-.4-5.9,6.2-12.9,10.4-12.9s3.6,1.1,3.8,2.8c.4,3.1-7.1,12.9-11.4,12.9" fill="#e1251b"/>
            <path d="M300.1,389.2c-1.6-.3-2.7.4-3,1.8-.2,1.4.6,2.3,2,2.6,1.5.3,3.2-.1,3.5-1.8.2-1.1-.9-2.3-2.5-2.5" fill="#e1251b"/>
            <path d="M376.1,394.4c-.9-.1-3.3-.2-4,.9-2.3,3.7-8,16.7-12.8,16.7s-3.2-2.5-.8-9.3c1.6-4.4,4.1-9.8,6.2-14.6.2-.4.4-1,.8-1,3.2-.3,11.2-.8,13.6-2.6.3-.3.7-.7.7-1.1,0-.5-.8-.6-1.2-.6-1.9,0-3.7.1-5.6.1-3.5,0-2.2,0-5.8,0,.9-1.8,1.7-3.6,2.6-5.4.6-1.3.2-2.4-1-2.6-.8-.2-2,.2-2.7,1.4-.4.7-3.5,6-4,6.5-.5.2-5.2.2-7.3.1-1.4,0-1.8.7-1.3,2,.4,1,1.7,1.7,3.1,2,.9.2,2.5.1,3.6.2,0,0-5.7,11-8.3,17.4-.6,1.4-.9,2.7-1,3.9-2.1,2-3.3,2.4-4.2,2.4-2.2,0-1.1-4.9-.6-9.4.2-1.3.5-2.8.3-3.9-.3-2.4-2.1-4-4.8-2.4-1.3.8-2.3,1.7-3.7,3.1-1.1,1.2-10.3,10.8-9.8,9.7,4.1-6.9,5.6-12.1,2.9-12.1s-8.8,18-19.4,18-3.3-1.7-3.3-1.7c9.6-4.3,12.1-10.4,12.1-13.3s-2.2-5.3-5.6-5.3-2.6.2-4.1.9c-5.9,2.5-8.7,10.4-7.9,16.3,0,0-4.4,1.9-5.8,1.9-3.6,0-1.9-5.4-.4-9.6,1-2.6.9-2.2,1.3-3,.9-1.8.7-2.4.2-3-.5-.5-1.6-1.6-2.6-.4-1.8,2.4-4.6,8.4-5.5,12.7-1.8,1.4-6,3.3-7.5,3.3-3.5,0-1.9-5.4-.4-9.6,1.7-4.4,4.1-9.8,6.2-14.6.2-.4.4-1,.8-1,3.2-.2,11.2-.8,13.6-2.6.3-.3.7-.7.7-1.1,0-.5-.8-.6-1.2-.6-1.9,0-3.7.1-5.6.1-3.4,0-2.2,0-5.8,0,.9-1.8,1.7-3.6,2.6-5.4.6-1.3-.2-2.3-1-2.6-.8-.3-1.9.2-2.6,1.4-.5.8-3.4,5.7-4,6.5-.5.2-5.2.2-7.3.1-1.4,0-1.8.7-1.3,2,.5,1,1.7,1.7,3.1,2,.9.2,2.6,0,3.6.2,0,0-5.7,11-8.3,17.4-.4,1-.7,1.9-.9,2.9-3.2,3.4-4.7,3.5-5.8,3.4-1.6-.2-2.3-4.2.7-10,.6-1.2,2.1-4,1.7-5-.6-1.6-1.8-1.7-1.8-1.7-.9-.1-2.1,1.6-2.8,2.9-1-1.7-3-3-6.2-3-5.2,0-14.4,7.7-14.4,16.3-1.8,1.2-4.4,2.5-5.3.7-1.2-2.4,8.4-17,0-17.4-2.8-.1-5.5,1.4-8,3.3.7-2.3,1.6-5.6,1.6-6.1,0-1.4-1.3-2.4-2.3-2.4-.7,0-1.2,0-1.9,1-.8,1.1-3,4-3.9,5.1-3,3.6-6.5,7.2-13.9,12.8-1.1.8-1.5,1.6-.7,2.7.9,1.2,2.1,1,3.7.4,2.4-.9,8.9-5.5,10.7-8.4,0,.6-.1,1-.5,1.7-3.8,7.3-7.5,13.9-10.9,19.8-1.3,2.4-2.2,4-3.5,6.5-.6,1.3-.2,2.3,1,3,1.2.7,2.5,0,3.1-1.1.9-1.7,1.7-3.4,2.7-5,3.7-6.9,8.6-14.9,12.1-21.1,3.4-5,5.4-7.4,8.3-7.4,4.6,0-2.1,8.8-2.8,13.1-1.5,8.4,7,5,11.6,2.4,1,1.6,2.8,3,6.3,3s7.3-2.4,10.1-5.7c.1,7.1,6.8,6.6,11.3.9.7,2.6,2.8,4.4,6.5,4.4s7.4-2.9,8.4-3.8c1.3,3.6,4.4,3.8,6,3.8,3.1,0,8.3-3,8.3-2.9,1.6,2.7,4.8,4,7.8,3.7,4-.3,7.8-2.8,11.3-6.4,0,0,0,0,0,0-.4.8-2.6,5.4,1.4,5.4s2.2-.9,2.7-1.4c5.7-5.7,13.7-14,14.3-14.5-.5,2.4-1,9.4-.9,11.6.4,6.1,6.4,5.6,10.8.7.3.7.7,1.3,1.1,1.7,1.1,1.2,3,2.1,5.7,2.1,9.1-.1,16.8-18,16.8-18,0,0,2.2,6.7,4.2,11.9.6,1.5,0,2.2-1,2.5-3.1,1.1-5.8-1.6-6.4-2.1-.4-.3-1.5,1.8-1.5,2.8,0,1.5,2.4,3.6,5.6,3.7,6.5.1,7.6-4,6.4-8.4-.8-3.1-2.4-8.7-3.7-12.1-.6-1.6-1.6-2-2.5-2.2M254.3,411.7c-1.3,0-2.7-1-2.8-2.6-.4-5.4,6.5-12.3,10.6-12.3s3,.6,3.2,2.2c.4,2.9-6.9,12.6-11,12.6M315.9,396.3c3.2,1.7-1.7,8.7-8.7,12.1.3-8.1,6.1-13.5,8.7-12.1" fill="#e1251b"/>
            <polygon points="303.7 288.4 305.4 284.6 308.3 284.6 306.6 288.4 303.7 288.4" fill="#00205c"/>
            <polygon points="233.5 283.1 233.5 265 245.7 265 245.7 268 237.5 268 237.5 272.2 244.3 272.2 244.3 275.3 237.5 275.3 237.5 283.1 233.5 283.1" fill="#00205c"/>
            <path d="M252.4,272.8h2.1c1.8,0,2.8-.7,2.8-2.5s-1.1-2.5-2.8-2.5h-2.1v5ZM257.7,283.1l-3.5-7.4h-1.9v7.4h-4v-18.2h5.8c4.8,0,7.1,2,7.1,5.4s-.9,3.9-3.2,4.6l3.9,8.1h-4.3Z" fill="#00205c"/>
            <path d="M269.4,276.2h4l-2-7.4h0l-2,7.4ZM263.7,283.1l5.2-18.2h5.1l5.1,18.2h-3.8l-1-3.8h-5.5l-1.1,3.8h-3.8Z" fill="#00205c"/>
            <polygon points="281.7 283.1 281.7 265 286.1 265 291.6 275.7 291.7 275.7 291.7 265 295.4 265 295.4 283.1 291.5 283.1 285.4 271.4 285.4 271.4 285.4 283.1 281.7 283.1" fill="#00205c"/>
            <path d="M303.3,277.7c0,2,1,2.6,2.6,2.6s2.6-.5,2.6-2.6v-1.2h4v.8c0,4.5-2.7,6.1-6.6,6.1s-6.6-1.6-6.6-6.1v-6.5c0-4.5,2.7-6.1,6.6-6.1s6.6,1.6,6.6,6.1h0s-4,0-4,0v-.5c0-2-1-2.6-2.6-2.6s-2.6.6-2.6,2.6v7.4Z" fill="#00205c"/>
            <path d="M319.8,276.2h4l-1.9-7.4h0l-2,7.4ZM314.1,283.1l5.2-18.2h5.1l5.1,18.2h-3.8l-1-3.8h-5.5l-1.1,3.8h-3.8Z" fill="#00205c"/>
            <rect x="331.7" y="265" width="4" height="18.2" fill="#00205c"/>
            <path d="M348.1,270c-.7-1.7-1.6-2.5-2.9-2.5s-2.2.8-2.2,2c0,2.8,8.9,2.9,8.9,8.6s-2.5,5.2-6.7,5.2-5.8-1.6-6.8-5.1l4-.7c.5,2.2,1.9,3,3.1,3s2.5-.8,2.5-2.2c0-3.4-9-3.5-9-8.6s2.2-5.1,6.3-5.1,5.7,1.8,6.4,4.4l-3.6.9Z" fill="#00205c"/>
            <path d="M367.3,280h1.4c2.2,0,3.5-.9,3.5-3.6v-4.8c0-2.6-1-3.6-3.5-3.6h-1.4v12ZM363.2,265h5.6c4.6,0,7.1,1.7,7.3,6.3v5.6c-.2,4.6-2.7,6.3-7.3,6.3h-5.6v-18.2Z" fill="#00205c"/>
            <path d="M383.8,265v12.7c0,1.8.9,2.6,2.8,2.6s2.9-.9,2.9-2.6v-12.7h4v12.7c0,4-2.7,5.7-6.8,5.7s-6.8-1.7-6.8-5.7v-12.7h4Z" fill="#00205c"/>
            <path d="M414.5,270c-.7-1.7-1.5-2.5-2.9-2.5s-2.2.8-2.2,2c0,2.8,8.9,2.9,8.9,8.6s-2.5,5.2-6.7,5.2-5.8-1.6-6.9-5.1l3.9-.7c.5,2.2,1.9,3,3.1,3s2.5-.8,2.5-2.2c0-3.4-8.9-3.5-8.9-8.6s2.2-5.1,6.3-5.1,5.8,1.8,6.4,4.4l-3.6.9Z" fill="#00205c"/>
            <path d="M425.3,276.2h4l-1.9-7.4h0l-2,7.4ZM419.6,283.1l5.2-18.2h5.1l5,18.2h-3.8l-1-3.8h-5.5l-1.1,3.8h-3.9Z" fill="#00205c"/>
            <polygon points="438.2 283.1 438.2 265 442.5 265 448.1 275.7 448.2 275.7 448.2 265 451.8 265 451.8 283.1 448 283.1 441.9 271.4 441.8 271.4 441.8 283.1 438.2 283.1" fill="#00205c"/>
            <path d="M462.1,283.4c-3.5-.2-6-1.9-6-6.1v-6.5c0-4.5,2.7-6.1,6.6-6.1s6.3,2,6.4,6.2h-4c0-2.3-1-3.1-2.4-3.1s-2.6.6-2.6,2.6v7.4c0,2,1,2.6,2.6,2.6s2.4-1,2.4-2.5v-1.1h-2.8v-3.6h6.8v4.1c0,1.3-.1,6.2-7.1,6.2" fill="#00205c"/>
            <path d="M250,500c-66.8,0-129.6-26-176.8-73.2C26,379.6,0,316.8,0,250S26,120.4,73.2,73.2C120.4,26,183.2,0,250,0s129.6,26,176.8,73.2c47.2,47.2,73.2,110,73.2,176.8s-26,129.6-73.2,176.8c-47.2,47.2-110,73.2-176.8,73.2M250,3.6c-65.8,0-127.7,25.6-174.2,72.2C29.2,122.3,3.6,184.2,3.6,250s25.6,127.7,72.2,174.2c46.5,46.5,108.4,72.2,174.2,72.2s127.7-25.6,174.2-72.2c46.5-46.5,72.2-108.4,72.2-174.2s-25.6-127.7-72.2-174.2C377.6,29.2,315.8,3.6,250,3.6" fill="#00205c"/>
            <polygon points="233 147.5 280 147.5 280 154.7 245.6 154.7 245.6 185.3 276.8 185.3 276.8 192.5 245.6 192.5 245.6 235.7 233 235.7 233 147.5" fill="#00205c"/>
            <path d="M336.7,152.5s-8.2-6.2-20.5-6.2-26.4,6-26.4,22.4c0,24.3,37.7,23.2,37.7,44.7s-6.5,16.4-15.3,16.4-13.3-1.6-22.6-11.6v10.4s9.3,8,23.1,8,27.5-8.9,27.5-24.7c0-29.6-38.3-28.5-38.3-46.4s10.4-12.7,14.7-12.7,10.9.2,20.1,8v-8.5Z" fill="#00205c"/>
            <polygon points="179.9 228.6 179.9 192.4 210.7 192.4 210.7 185.2 179.9 185.2 179.9 154.7 213.9 154.7 213.9 147.5 167.3 147.5 167.3 235.6 215.3 235.6 215.3 228.6 179.9 228.6" fill="#00205c"/>
            <path d="M250,73c-76.1,0-139.5,58.2-145,140.5h.7c5.8-50.6,51.9-130.6,144.3-130.6s138.5,80,144.3,130.6h.7c-5.5-82.3-68.9-140.5-145-140.5" fill="#00205c"/>
            <polygon points="41 258.3 37.7 262.6 34.8 262.6 36.5 258.3 41 258.3" fill="#00205c"/>
            <polygon points="30.7 283.1 30.7 265 41.6 265 41.6 268 34.7 268 34.7 272.2 40 272.2 40 275.3 34.7 275.3 34.7 280 41.9 280 41.9 283.1 30.7 283.1" fill="#00205c"/>
            <polygon points="57.6 265 57.6 268 52.9 268 52.9 283.1 48.9 283.1 48.9 268 44.3 268 44.3 265 57.6 265" fill="#00205c"/>
            <path d="M63.5,276.2h4l-2-7.4h0l-2,7.4ZM57.8,283.1l5.2-18.2h5.1l5.1,18.2h-3.8l-1-3.8h-5.5l-1.1,3.8h-3.8Z" fill="#00205c"/>
            <path d="M79.6,280.2h1.7c2.1,0,3.2-1.1,3.2-2.6s-1.4-2.6-3.5-2.6h-1.4v5.2ZM79.6,272.2h1.4c1.8,0,3-.9,3-2.1s-.9-2.2-2.8-2.2h-1.6v4.3ZM75.6,265h5.6c4.3,0,6.8,1.5,6.8,4.7s-.9,2.9-2.6,3.8c2.2,1.2,3.1,2.2,3.1,4.5,0,3.6-2.8,5.2-7,5.2h-5.9v-18.2Z" fill="#00205c"/>
            <polygon points="91.2 283.1 91.2 265 95.2 265 95.2 280 101.6 280 101.6 283.1 91.2 283.1" fill="#00205c"/>
            <rect x="104.5" y="265" width="4" height="18.2" fill="#00205c"/>
            <path d="M120.8,270c-.7-1.7-1.5-2.5-2.9-2.5s-2.2.8-2.2,2c0,2.8,8.9,2.9,8.9,8.6s-2.5,5.2-6.7,5.2-5.8-1.6-6.8-5.1l4-.7c.5,2.2,1.9,3,3.1,3s2.5-.8,2.5-2.2c0-3.4-8.9-3.5-8.9-8.6s2.1-5.1,6.3-5.1,5.7,1.8,6.4,4.4l-3.6.9Z" fill="#00205c"/>
            <path d="M135.9,270c-.7-1.7-1.5-2.5-2.9-2.5s-2.2.8-2.2,2c0,2.8,8.9,2.9,8.9,8.6s-2.5,5.2-6.7,5.2-5.8-1.6-6.9-5.1l3.9-.7c.5,2.2,1.9,3,3.1,3s2.5-.8,2.5-2.2c0-3.4-8.9-3.5-8.9-8.6s2.1-5.1,6.3-5.1,5.7,1.8,6.4,4.4l-3.6.9Z" fill="#00205c"/>
            <polygon points="142.8 283.1 142.8 265 153.8 265 153.8 268 146.8 268 146.8 272.2 152.1 272.2 152.1 275.3 146.8 275.3 146.8 280 154.1 280 154.1 283.1 142.8 283.1" fill="#00205c"/>
            <polygon points="157.1 283.1 157.1 265 162.2 265 165.6 275.2 165.7 275.2 169.1 265 174.3 265 174.3 283.1 171.1 283.1 171.1 268.8 171 268.8 167.1 279.4 164.2 279.4 160.3 268.8 160.2 268.8 160.2 283.1 157.1 283.1" fill="#00205c"/>
            <polygon points="177.7 283.1 177.7 265 188.6 265 188.6 268 181.7 268 181.7 272.2 187 272.2 187 275.3 181.7 275.3 181.7 280 188.9 280 188.9 283.1 177.7 283.1" fill="#00205c"/>
            <polygon points="192.2 283.1 192.2 265 196.6 265 202.2 275.7 202.2 275.7 202.2 265 205.9 265 205.9 283.1 202 283.1 195.9 271.4 195.9 271.4 195.9 283.1 192.2 283.1" fill="#00205c"/>
            <polygon points="222.2 265 222.2 268 217.5 268 217.5 283.1 213.5 283.1 213.5 268 208.9 268 208.9 265 222.2 265" fill="#00205c"/>
          </g>
        </g>
      </g>
    </g>
  </g>
</svg>