<svg width="159" height="50" viewBox="0 0 159 50" fill="none" xmlns="http://www.w3.org/2000/svg">
<g clip-path="url(#clip0_9_232)">
<mask id="mask0_9_232" style="mask-type:alpha" maskUnits="userSpaceOnUse" x="0" y="0" width="159" height="50">
<path fill-rule="evenodd" clip-rule="evenodd" d="M0 0H158.134V49.95H0V0Z" fill="white"/>
</mask>
<g mask="url(#mask0_9_232)">
<path fill-rule="evenodd" clip-rule="evenodd" d="M146.223 -0.0498047H11.9187C11.46 -0.0498047 11.0075 -0.0498047 10.55 -0.0473047C10.1675 -0.0448047 9.7875 -0.0373047 9.40125 -0.0310547C8.56875 -0.0110547 7.7275 0.0401953 6.89625 0.188945C6.06 0.336445 5.2825 0.586445 4.52 0.972695C3.7725 1.35645 3.08875 1.85395 2.4975 2.44645C1.89875 3.03895 1.40375 3.7252 1.02375 4.4727C0.635 5.23395 0.38875 6.0152 0.2425 6.85145C0.0925 7.6802 0.04 8.5177 0.01875 9.35395C0.0075 9.7377 0.00625 10.1227 0 10.5052C0 10.9589 0 11.4127 0 11.8702V38.0314C0 38.4927 0 38.9439 0 39.3989C0.00625 39.7864 0.0075 40.1627 0.01875 40.5502C0.04 41.3877 0.0925 42.2252 0.2425 43.0527C0.38875 43.8902 0.635 44.6752 1.02375 45.4339C1.40375 46.1777 1.89875 46.8639 2.4975 47.4514C3.08875 48.0489 3.7725 48.5452 4.52 48.9252C5.2825 49.3152 6.06 49.5627 6.89625 49.7139C7.7275 49.8627 8.56875 49.9114 9.40125 49.9339C9.7875 49.9427 10.1675 49.9477 10.55 49.9477C11.0075 49.9502 11.46 49.9502 11.9187 49.9502H146.223C146.671 49.9502 147.129 49.9502 147.577 49.9477C147.959 49.9477 148.349 49.9427 148.73 49.9339C149.568 49.9114 150.408 49.8627 151.23 49.7139C152.068 49.5627 152.846 49.3152 153.615 48.9252C154.363 48.5452 155.046 48.0489 155.636 47.4514C156.232 46.8639 156.728 46.1777 157.114 45.4339C157.497 44.6752 157.746 43.8902 157.887 43.0527C158.041 42.2252 158.09 41.3877 158.12 40.5502C158.125 40.1627 158.125 39.7864 158.125 39.3989C158.134 38.9439 158.134 38.4927 158.134 38.0314V11.8702C158.134 11.4127 158.134 10.9589 158.125 10.5052C158.125 10.1227 158.125 9.7377 158.12 9.35395C158.09 8.5177 158.041 7.6802 157.887 6.85145C157.746 6.0152 157.497 5.23395 157.114 4.4727C156.728 3.7252 156.232 3.03895 155.636 2.44645C155.046 1.85395 154.363 1.35645 153.615 0.972695C152.846 0.586445 152.068 0.336445 151.23 0.188945C150.408 0.0401953 149.568 -0.0110547 148.73 -0.0310547C148.349 -0.0373047 147.959 -0.0448047 147.577 -0.0473047C147.129 -0.0498047 146.671 -0.0498047 146.223 -0.0498047Z" fill="#A9AAA9"/>
</g>
<path fill-rule="evenodd" clip-rule="evenodd" d="M10.5563 48.8564C10.1751 48.8564 9.80381 48.8514 9.42631 48.8427C8.72631 48.8239 7.89756 48.7839 7.08881 48.6389C6.32631 48.5014 5.64881 48.2764 5.01881 47.9539C4.36631 47.6239 3.78006 47.1964 3.27256 46.6839C2.75506 46.1752 2.32881 45.5927 1.99631 44.9377C1.67256 44.3064 1.45131 43.6289 1.31756 42.8664C1.16506 42.0252 1.12631 41.1727 1.11006 40.5227C1.10131 40.2589 1.09131 39.3814 1.09131 39.3814V10.5052C1.09131 10.5052 1.10256 9.64145 1.11006 9.3877C1.12631 8.7327 1.16506 7.8802 1.31631 7.0477C1.45006 6.2802 1.67131 5.6027 1.99631 4.9702C2.32756 4.31395 2.75381 3.7277 3.26506 3.2227C3.78131 2.7052 4.37006 2.27645 5.01756 1.94395C5.66006 1.6177 6.33631 1.3952 7.08381 1.26395C7.92631 1.11395 8.77881 1.0752 9.42881 1.05895L10.5563 1.04395H147.571L148.713 1.0602C149.354 1.0752 150.208 1.11395 151.036 1.2627C151.789 1.3952 152.47 1.61895 153.125 1.9477C153.765 2.27645 154.353 2.7052 154.864 3.2177C155.375 3.7252 155.804 4.3152 156.144 4.9727C156.465 5.61145 156.685 6.28895 156.813 7.03395C156.958 7.8227 157.003 8.6327 157.03 9.3927C157.033 9.74645 157.033 10.1277 157.033 10.5052C157.043 10.9739 157.043 11.4202 157.043 11.8702V38.0314C157.043 38.4852 157.043 38.9289 157.033 39.3752C157.033 39.7814 157.033 40.1539 157.029 40.5377C157.003 41.2739 156.958 42.0827 156.815 42.8539C156.685 43.6202 156.465 44.2977 156.14 44.9414C155.803 45.5914 155.374 46.1777 154.87 46.6739C154.354 47.1964 153.768 47.6227 153.121 47.9514C152.473 48.2814 151.811 48.5002 151.036 48.6389C150.235 48.7839 149.406 48.8239 148.699 48.8427C148.334 48.8514 147.95 48.8564 147.578 48.8564L146.223 48.8589L10.5563 48.8564Z" fill="#101828"/>
<path fill-rule="evenodd" clip-rule="evenodd" d="M30.9652 25.3261C30.9339 21.8873 33.7802 20.2136 33.9102 20.1348C32.2989 17.7848 29.7989 17.4636 28.9214 17.4386C26.8227 17.2173 24.7877 18.6948 23.7177 18.6948C22.6277 18.6948 20.9814 17.4598 19.2077 17.4973C16.9252 17.5323 14.7877 18.8548 13.6164 20.9073C11.199 25.0923 13.0014 31.2436 15.3177 34.6261C16.4764 36.2836 17.8302 38.1348 19.6027 38.0686C21.3364 37.9973 21.9839 36.9623 24.0764 36.9623C26.1502 36.9623 26.7577 38.0686 28.5652 38.0273C30.4252 37.9973 31.5977 36.3623 32.7152 34.6898C34.0552 32.7911 34.5927 30.9198 34.6139 30.8248C34.5702 30.8098 31.0002 29.4486 30.9652 25.3261Z" fill="white"/>
<path fill-rule="evenodd" clip-rule="evenodd" d="M27.5499 15.2138C28.4824 14.0476 29.1199 12.4613 28.9436 10.8501C27.5936 10.9101 25.9061 11.7838 24.9336 12.9251C24.0736 13.9301 23.3061 15.5776 23.5036 17.1263C25.0199 17.2401 26.5774 16.3613 27.5499 15.2138Z" fill="white"/>
<path fill-rule="evenodd" clip-rule="evenodd" d="M44.5685 18.3274V11.9224H42.2222V10.8687H48.0685V11.9224H45.7272V18.3274H44.5685Z" fill="white"/>
<path fill-rule="evenodd" clip-rule="evenodd" d="M50.3436 11.7573L51.6411 9.97852H52.9436L51.4911 11.7573H50.3436ZM49.5486 14.9935H52.3911C52.3661 14.1098 51.8286 13.5348 51.0061 13.5348C50.1836 13.5348 49.6099 14.1148 49.5486 14.9935ZM53.4561 16.8073C53.2024 17.8148 52.3036 18.436 51.0161 18.436C49.4036 18.436 48.4161 17.3298 48.4161 15.5298C48.4161 13.731 49.4249 12.5898 51.0124 12.5898C52.5774 12.5898 53.5224 13.6598 53.5224 15.4273V15.8148H49.5486V15.8773C49.5849 16.8635 50.1586 17.4898 51.0474 17.4898C51.7199 17.4898 52.1799 17.246 52.3861 16.8073H53.4561Z" fill="white"/>
<path fill-rule="evenodd" clip-rule="evenodd" d="M55.0664 18.3277H56.1777V10.5015H55.0664V18.3277Z" fill="white"/>
<path fill-rule="evenodd" clip-rule="evenodd" d="M59.6485 11.7573L60.946 9.97852H62.2485L60.796 11.7573H59.6485ZM58.8523 14.9935H61.6948C61.6698 14.1098 61.1323 13.5348 60.3098 13.5348C59.4885 13.5348 58.9148 14.1148 58.8523 14.9935ZM62.7598 16.8073C62.5073 17.8148 61.6073 18.436 60.321 18.436C58.7085 18.436 57.721 17.3298 57.721 15.5298C57.721 13.731 58.7285 12.5898 60.316 12.5898C61.8823 12.5898 62.8273 13.6598 62.8273 15.4273V15.8148H58.8523V15.8773C58.8885 16.8635 59.4623 17.4898 60.351 17.4898C61.0235 17.4898 61.4848 17.246 61.691 16.8073H62.7598Z" fill="white"/>
<path fill-rule="evenodd" clip-rule="evenodd" d="M68.0038 14.5373C67.875 13.9898 67.42 13.5823 66.675 13.5823C65.745 13.5823 65.1763 14.2948 65.1763 15.4948C65.1763 16.7148 65.75 17.4436 66.675 17.4436C67.3775 17.4436 67.8588 17.1223 68.0038 16.5173H69.085C68.9388 17.6498 68.0713 18.4361 66.6813 18.4361C65.0413 18.4361 64.0388 17.3298 64.0388 15.4948C64.0388 13.6911 65.0363 12.5898 66.675 12.5898C68.0863 12.5898 68.9388 13.4111 69.085 14.5373H68.0038Z" fill="white"/>
<path fill-rule="evenodd" clip-rule="evenodd" d="M70.5585 10.5015H71.6597V13.6027H71.7472C72.021 12.9715 72.616 12.5952 73.4635 12.5952C74.6622 12.5952 75.4022 13.3552 75.4022 14.6927V18.3277H74.291V14.9677C74.291 14.0677 73.8722 13.6127 73.0872 13.6127C72.176 13.6127 71.6697 14.1877 71.6697 15.0402V18.3277H70.5585V10.5015Z" fill="white"/>
<path fill-rule="evenodd" clip-rule="evenodd" d="M80.4174 16.2548V15.7836L79.0424 15.8711C78.2674 15.9236 77.9161 16.1873 77.9161 16.6836C77.9161 17.1898 78.3561 17.4848 78.9599 17.4848C79.7974 17.4848 80.4174 16.9523 80.4174 16.2548ZM76.7999 16.7348C76.7999 15.7223 77.5536 15.1373 78.8924 15.0548L80.4174 14.9673V14.4811C80.4174 13.8861 80.0249 13.5511 79.2649 13.5511C78.6449 13.5511 78.2149 13.7786 78.0924 14.1761H77.0161C77.1299 13.2098 78.0399 12.5898 79.3161 12.5898C80.7274 12.5898 81.5224 13.2923 81.5224 14.4811V18.3273H80.4536V17.5361H80.3661C80.0299 18.0998 79.4149 18.4198 78.6749 18.4198C77.5899 18.4198 76.7999 17.7636 76.7999 16.7348Z" fill="white"/>
<path fill-rule="evenodd" clip-rule="evenodd" d="M83.2624 12.6987H84.3311V13.5612H84.4149C84.5749 13.0087 85.1999 12.605 85.9349 12.605C86.0986 12.605 86.3111 12.62 86.4299 12.6512V13.7475C86.3374 13.7162 86.0061 13.68 85.8099 13.68C84.9674 13.68 84.3724 14.2125 84.3724 15.0037V18.3275H83.2624V12.6987Z" fill="white"/>
<path fill-rule="evenodd" clip-rule="evenodd" d="M91.3965 15.4425C91.3965 14.3212 90.8165 13.6025 89.8702 13.6025C88.914 13.6025 88.3777 14.3212 88.3777 15.4425C88.3777 16.565 88.914 17.2825 89.8702 17.2825C90.8227 17.2825 91.3965 16.57 91.3965 15.4425ZM87.4515 18.89H88.589C88.6827 19.2987 89.1527 19.5625 89.9015 19.5625C90.8277 19.5625 91.3752 19.1225 91.3752 18.3787V17.2987H91.2927C90.9502 17.9087 90.3302 18.2437 89.5552 18.2437C88.119 18.2437 87.2302 17.1337 87.2302 15.4475C87.2302 13.7312 88.1277 12.605 89.5665 12.605C90.3415 12.605 91.0177 12.9875 91.334 13.5975H91.4215V12.6987H92.4865V18.3737C92.4865 19.6612 91.4777 20.4775 89.8865 20.4775C88.4802 20.4775 87.5702 19.8475 87.4515 18.89Z" fill="white"/>
<path fill-rule="evenodd" clip-rule="evenodd" d="M95.1077 14.9936H97.9515C97.9253 14.1098 97.389 13.5348 96.5653 13.5348C95.744 13.5348 95.1702 14.1148 95.1077 14.9936ZM99.0152 16.8073C98.7627 17.8148 97.8628 18.4361 96.5765 18.4361C94.964 18.4361 93.9765 17.3298 93.9765 15.5298C93.9765 13.7311 94.9853 12.5898 96.5715 12.5898C98.1378 12.5898 99.0828 13.6598 99.0828 15.4273V15.8148H95.1077V15.8773C95.1452 16.8636 95.719 17.4898 96.6078 17.4898C97.2803 17.4898 97.7403 17.2461 97.9465 16.8073H99.0152Z" fill="white"/>
<path fill-rule="evenodd" clip-rule="evenodd" d="M100.575 12.6987H101.644V13.5612H101.726C101.886 13.0087 102.511 12.605 103.246 12.605C103.411 12.605 103.624 12.62 103.743 12.6512V13.7475C103.649 13.7162 103.319 13.68 103.123 13.68C102.28 13.68 101.685 14.2125 101.685 15.0037V18.3275H100.575V12.6987Z" fill="white"/>
<path fill-rule="evenodd" clip-rule="evenodd" d="M108.892 15.5102C108.892 16.704 109.455 17.4227 110.396 17.4227C111.332 17.4227 111.911 16.694 111.911 15.5152C111.911 14.3427 111.326 13.6027 110.396 13.6027C109.461 13.6027 108.892 14.3265 108.892 15.5102ZM107.745 15.5102C107.745 13.7315 108.658 12.6052 110.081 12.6052C110.851 12.6052 111.502 12.9715 111.807 13.5927H111.89V10.5015H113.001V18.3277H111.936V17.4377H111.848C111.513 18.0527 110.856 18.4202 110.081 18.4202C108.648 18.4202 107.745 17.294 107.745 15.5102Z" fill="white"/>
<path fill-rule="evenodd" clip-rule="evenodd" d="M118.121 16.2548V15.7836L116.746 15.8711C115.971 15.9236 115.62 16.1873 115.62 16.6836C115.62 17.1898 116.059 17.4848 116.664 17.4848C117.501 17.4848 118.121 16.9523 118.121 16.2548ZM114.503 16.7348C114.503 15.7223 115.258 15.1373 116.596 15.0548L118.121 14.9673V14.4811C118.121 13.8861 117.728 13.5511 116.969 13.5511C116.349 13.5511 115.919 13.7786 115.795 14.1761H114.72C114.834 13.2098 115.743 12.5898 117.02 12.5898C118.431 12.5898 119.226 13.2923 119.226 14.4811V18.3273H118.158V17.5361H118.07C117.734 18.0998 117.119 18.4198 116.379 18.4198C115.294 18.4198 114.503 17.7636 114.503 16.7348Z" fill="white"/>
<path fill-rule="evenodd" clip-rule="evenodd" d="M120.966 12.6986H122.035V13.5923H122.119C122.392 12.9673 122.951 12.5898 123.799 12.5898C125.054 12.5898 125.746 13.3436 125.746 14.6836V18.3273H124.636V14.9623C124.636 14.0573 124.242 13.6073 123.421 13.6073C122.6 13.6073 122.077 14.1561 122.077 15.0336V18.3273H120.966V12.6986Z" fill="white"/>
<path fill-rule="evenodd" clip-rule="evenodd" d="M129.522 12.5898C130.787 12.5898 131.615 13.1786 131.724 14.1711H130.659C130.556 13.7573 130.152 13.4936 129.522 13.4936C128.902 13.4936 128.431 13.7886 128.431 14.2273C128.431 14.5636 128.715 14.7761 129.325 14.9161L130.261 15.1323C131.331 15.3811 131.833 15.8411 131.833 16.6686C131.833 17.7273 130.845 18.4361 129.501 18.4361C128.163 18.4361 127.29 17.8311 127.19 16.8336H128.303C128.441 17.2673 128.855 17.5361 129.528 17.5361C130.219 17.5361 130.711 17.2261 130.711 16.7761C130.711 16.4398 130.448 16.2236 129.884 16.0886L128.903 15.8611C127.831 15.6073 127.336 15.1273 127.336 14.2898C127.336 13.2923 128.25 12.5898 129.522 12.5898Z" fill="white"/>
<path fill-rule="evenodd" clip-rule="evenodd" d="M43.9977 38.0562H46.3215V22.5337H43.9977V38.0562Z" fill="white"/>
<path fill-rule="evenodd" clip-rule="evenodd" d="M49.1224 28.2137L50.3911 22.5337H52.6499L51.1124 28.2137H49.1224Z" fill="white"/>
<path fill-rule="evenodd" clip-rule="evenodd" d="M56.1275 31.9249H60.8175L58.5062 25.1149H58.4412L56.1275 31.9249ZM61.4325 33.8612H55.515L54.0937 38.0562H51.5887L57.1925 22.5337H59.7962L65.4 38.0562H62.8512L61.4325 33.8612Z" fill="white"/>
<path fill-rule="evenodd" clip-rule="evenodd" d="M75.1164 32.3989C75.1164 30.1064 73.9326 28.6001 72.1251 28.6001C70.3501 28.6001 69.1564 30.1389 69.1564 32.3989C69.1564 34.6789 70.3501 36.2064 72.1251 36.2064C73.9326 36.2064 75.1164 34.7114 75.1164 32.3989ZM77.5039 32.3989C77.5039 35.9151 75.6214 38.1751 72.7814 38.1751C71.1689 38.1751 69.8876 37.4539 69.2201 36.1951H69.1664V41.8014H66.8439V26.7389H69.0914V28.6214H69.1351C69.7801 27.4064 71.1576 26.6201 72.7376 26.6201C75.6101 26.6201 77.5039 28.8914 77.5039 32.3989Z" fill="white"/>
<path fill-rule="evenodd" clip-rule="evenodd" d="M87.5713 32.3989C87.5713 30.1064 86.3875 28.6001 84.5813 28.6001C82.8063 28.6001 81.6125 30.1389 81.6125 32.3989C81.6125 34.6789 82.8063 36.2064 84.5813 36.2064C86.3875 36.2064 87.5713 34.7114 87.5713 32.3989ZM89.9588 32.3989C89.9588 35.9151 88.0763 38.1751 85.2363 38.1751C83.6238 38.1751 82.3425 37.4539 81.675 36.1951H81.6213V41.8014H79.2988V26.7389H81.5475V28.6214H81.59C82.2363 27.4064 83.6125 26.6201 85.1938 26.6201C88.0663 26.6201 89.9588 28.8914 89.9588 32.3989Z" fill="white"/>
<path fill-rule="evenodd" clip-rule="evenodd" d="M98.1911 33.7312C98.3636 35.2712 99.8586 36.2812 101.902 36.2812C103.86 36.2812 105.269 35.2712 105.269 33.8837C105.269 32.6787 104.42 31.9562 102.407 31.4624L100.396 30.9774C97.5461 30.2887 96.2223 28.9562 96.2223 26.7924C96.2223 24.1149 98.5561 22.2749 101.871 22.2749C105.151 22.2749 107.399 24.1149 107.475 26.7924H105.13C104.99 25.2437 103.709 24.3087 101.837 24.3087C99.9661 24.3087 98.6861 25.2549 98.6861 26.6312C98.6861 27.7287 99.5036 28.3749 101.505 28.8687L103.215 29.2887C106.4 30.0424 107.722 31.3224 107.722 33.5924C107.722 36.4962 105.41 38.3149 101.73 38.3149C98.2874 38.3149 95.9636 36.5399 95.8136 33.7312H98.1911Z" fill="white"/>
<path fill-rule="evenodd" clip-rule="evenodd" d="M112.736 24.061V26.7385H114.889V28.5785H112.736V34.8185C112.736 35.7873 113.167 36.2385 114.112 36.2385C114.35 36.2385 114.727 36.206 114.877 36.1848V38.0135C114.62 38.0785 114.104 38.121 113.587 38.121C111.296 38.121 110.402 37.261 110.402 35.066V28.5785H108.756V26.7385H110.402V24.061H112.736Z" fill="white"/>
<path fill-rule="evenodd" clip-rule="evenodd" d="M124.503 32.3988C124.503 29.9551 123.384 28.5138 121.502 28.5138C119.619 28.5138 118.499 29.9663 118.499 32.3988C118.499 34.8513 119.619 36.2813 121.502 36.2813C123.384 36.2813 124.503 34.8513 124.503 32.3988ZM116.134 32.3988C116.134 28.8376 118.232 26.6001 121.502 26.6001C124.783 26.6001 126.87 28.8376 126.87 32.3988C126.87 35.9688 124.794 38.1976 121.502 38.1976C118.21 38.1976 116.134 35.9688 116.134 32.3988Z" fill="white"/>
<path fill-rule="evenodd" clip-rule="evenodd" d="M128.785 26.7389H131V28.6651H131.054C131.409 27.3851 132.443 26.6201 133.776 26.6201C134.11 26.6201 134.389 26.6651 134.573 26.7076V28.8801C134.389 28.8039 133.98 28.7401 133.529 28.7401C132.033 28.7401 131.108 29.7514 131.108 31.3439V38.0564H128.785V26.7389Z" fill="white"/>
<path fill-rule="evenodd" clip-rule="evenodd" d="M137.43 31.3551H143.087C143.034 29.6226 141.926 28.4826 140.312 28.4826C138.709 28.4826 137.549 29.6438 137.43 31.3551ZM145.282 34.7326C144.97 36.7876 142.969 38.1976 140.41 38.1976C137.117 38.1976 135.074 35.9913 135.074 32.4526C135.074 28.9026 137.129 26.6001 140.312 26.6001C143.442 26.6001 145.412 28.7513 145.412 32.1826V32.9788H137.419V33.1188C137.419 35.0551 138.635 36.3251 140.464 36.3251C141.754 36.3251 142.765 35.7113 143.076 34.7326H145.282Z" fill="white"/>
</g>
<defs>
<clipPath id="clip0_9_232">
<rect width="158.75" height="50" fill="white"/>
</clipPath>
</defs>
</svg>
