<svg width="169" height="50" viewBox="0 0 169 50" fill="none" xmlns="http://www.w3.org/2000/svg">
<g clip-path="url(#clip0_9_269)">
<path d="M162.5 50H6.25C2.8125 50 0 47.1875 0 43.75V6.25C0 2.8125 2.8125 0 6.25 0H162.5C165.938 0 168.75 2.8125 168.75 6.25V43.75C168.75 47.1875 165.938 50 162.5 50Z" fill="#101828"/>
<path fill-rule="evenodd" clip-rule="evenodd" d="M168.75 6.25V43.75C168.75 47.1875 165.938 50 162.5 50H6.25C2.8125 50 0 47.1875 0 43.75V6.25C0 2.8125 2.8125 0 6.25 0H162.5C165.938 0 168.75 2.8125 168.75 6.25ZM6.25 1C3.35469 1 1 3.35469 1 6.25V43.75C1 46.6453 3.35469 49 6.25 49H162.5C165.395 49 167.75 46.6453 167.75 43.75V6.25C167.75 3.35469 165.395 1 162.5 1H6.25Z" fill="#A6A6A6"/>
<path fill-rule="evenodd" clip-rule="evenodd" d="M90.5063 32.5064C90.5063 35.5674 88.1094 37.8221 85.1703 37.8221C82.2297 37.8221 79.8328 35.5674 79.8328 32.5064C79.8328 29.4252 82.2297 27.1893 85.1703 27.1893C88.1094 27.1893 90.5063 29.4252 90.5063 32.5064ZM88.1703 32.5064C88.1703 30.5924 86.7813 29.2846 85.1703 29.2846C83.5594 29.2846 82.1688 30.5924 82.1688 32.5064C82.1688 34.3986 83.5594 35.7283 85.1703 35.7283C86.7813 35.7283 88.1703 34.3986 88.1703 32.5064ZM78.8641 32.5064C78.8641 35.5674 76.4688 37.8221 73.5281 37.8221C70.5875 37.8221 68.1922 35.5674 68.1922 32.5064C68.1922 29.4252 70.5875 27.1893 73.5281 27.1893C76.4688 27.1893 78.8641 29.4252 78.8641 32.5064ZM76.5281 32.5064C76.5281 30.5924 75.1391 29.2846 73.5281 29.2846C71.9172 29.2846 70.5281 30.5924 70.5281 32.5064C70.5281 34.3986 71.9172 35.7283 73.5281 35.7283C75.1391 35.7283 76.5281 34.3986 76.5281 32.5064ZM67.2719 28.8205C67.3531 29.2236 67.3922 29.7064 67.3922 30.2299C67.3922 31.9221 66.9297 34.0158 65.4391 35.5064C63.9891 37.0174 62.136 37.8221 59.6797 37.8221C55.1281 37.8221 51.3016 34.1174 51.3016 29.5658C51.3016 25.0143 55.1281 21.3096 59.6797 21.3096C62.1969 21.3096 63.9891 22.2955 65.3391 23.5846L63.7469 25.1752C62.7813 24.2689 61.4719 23.5643 59.6797 23.5643C56.3563 23.5643 53.7594 26.2439 53.7594 29.5658C53.7594 32.8893 56.3563 35.5674 59.6797 35.5674C61.8344 35.5674 63.0625 34.7018 63.8485 33.9158C64.4922 33.2721 64.9156 32.3455 65.0766 31.0768H59.6797V28.8205H67.2719ZM116.556 31.1768L109.448 34.1174C109.992 35.1846 110.838 35.7283 112.025 35.7283C113.214 35.7283 114.039 35.1439 114.644 34.258L116.456 35.4658C115.872 36.333 114.463 37.8221 112.025 37.8221C109.005 37.8221 106.75 35.4861 106.75 32.5064C106.75 29.3439 109.025 27.1893 111.764 27.1893C114.523 27.1893 115.872 29.3846 116.316 30.5721L116.556 31.1768ZM113.817 30.3721C113.556 29.7064 112.77 29.2439 111.844 29.2439C110.656 29.2439 109.005 30.2908 109.066 32.3455L113.817 30.3721ZM103.286 21.8736H105.622V37.5002H103.286V21.8736ZM99.4594 27.5111H101.675V37.058C101.675 40.9846 99.3594 42.5955 96.6203 42.5955C94.0422 42.5955 92.4922 40.8627 91.9078 39.4533L93.9422 38.608C94.3047 39.4736 95.1906 40.5002 96.6203 40.5002C98.3719 40.5002 99.4594 39.4143 99.4594 37.3799V36.6143H99.3781C98.8547 37.258 97.8484 37.8221 96.5797 37.8221C93.9219 37.8221 91.4844 35.5064 91.4844 32.5268C91.4844 29.5252 93.9219 27.1893 96.5797 27.1893C97.8484 27.1893 98.8547 27.7533 99.3781 28.3783H99.4594V27.5111ZM99.6203 32.5268C99.6203 30.6533 98.3719 29.2846 96.7813 29.2846C95.1703 29.2846 93.8203 30.6533 93.8203 32.5268C93.8203 34.3783 95.1703 35.7283 96.7813 35.7283C98.3719 35.7283 99.6203 34.3783 99.6203 32.5268ZM132.384 26.7268C132.384 29.708 129.842 31.5799 127.258 31.5799H124V37.5002H121.669V21.8736H127.258C129.842 21.8736 132.384 23.7455 132.384 26.7268ZM130.052 26.7268C130.052 25.4924 129.061 24.0486 127.317 24.0486H124V29.4049H127.317C129.061 29.4049 130.052 27.9377 130.052 26.7268ZM146.477 31.483V37.4736H144.225V36.2674H144.145C143.602 37.0924 142.738 37.7955 141.169 37.7955C139.119 37.7955 137.289 36.4486 137.289 34.358C137.289 32.0658 139.561 30.8393 141.792 30.8393C142.898 30.8393 143.803 31.2018 144.225 31.4424V31.2814C144.205 29.9955 142.978 29.2721 141.772 29.2721C140.908 29.2721 140.084 29.5533 139.641 30.4174L137.57 29.5533C138.294 27.9049 140.044 27.1611 141.733 27.1611C144.406 27.1611 146.477 28.7096 146.477 31.483ZM144.225 33.2518C143.602 32.9502 143.119 32.7299 142.094 32.7299C140.948 32.7299 139.622 33.1924 139.622 34.3986C139.622 35.3439 140.688 35.7252 141.45 35.7252C142.798 35.7252 144.044 34.7002 144.225 33.2518ZM157.272 27.5033L150.859 42.2393H148.427L150.798 36.9721L146.638 27.5033H149.15L151.925 34.2783H152.005L154.68 27.5033H157.272ZM133.67 21.8736H136.003V37.5002H133.67V21.8736Z" fill="white"/>
<path d="M13.0438 9.42168C12.6813 9.80762 12.4656 10.4045 12.4656 11.1779V38.8232C12.4656 39.5982 12.6813 40.1951 13.0438 40.5795L13.1375 40.6701L28.6235 25.1842V25.0014V24.8186L13.1375 9.33105L13.0438 9.42168Z" fill="url(#paint0_linear_9_269)"/>
<path d="M33.7844 30.3484L28.6235 25.1844V25.0016V24.8187L33.786 19.6562L33.9032 19.7219L40.0188 23.1969C41.7657 24.1891 41.7657 25.8141 40.0188 26.8062L33.9032 30.2812L33.7844 30.3484Z" fill="url(#paint1_linear_9_269)"/>
<path d="M33.9031 30.2812L28.6234 25.0015L13.0438 40.5796C13.6203 41.189 14.5703 41.2655 15.6422 40.6562L33.9031 30.2812Z" fill="url(#paint2_linear_9_269)"/>
<path d="M33.9031 19.7218L15.6422 9.34522C14.5703 8.73741 13.6203 8.81241 13.0438 9.42178L28.6234 25.0015L33.9031 19.7218Z" fill="url(#paint3_linear_9_269)"/>
<path opacity="0.2" d="M33.7859 30.1655L15.6422 40.4733C14.6266 41.0499 13.7188 41.0124 13.1375 40.4874L13.0438 40.5812L13.1375 40.6702C13.7188 41.1952 14.6266 41.2343 15.6422 40.6562L33.9031 30.2812L33.7859 30.1655Z" fill="#101828"/>
<path opacity="0.122" d="M13.0438 40.3983C12.6813 40.0124 12.4656 39.4155 12.4656 38.6421V38.8249C12.4656 39.5983 12.6813 40.1952 13.0438 40.5812L13.1375 40.4874L13.0438 40.3983Z" fill="#101828"/>
<path opacity="0.122" d="M40.0188 26.6233L33.7859 30.1655L33.9031 30.2812L40.0188 26.8062C40.8922 26.3093 41.3281 25.6562 41.3281 25.0015C41.2547 25.5937 40.8109 26.1733 40.0188 26.6233Z" fill="#101828"/>
<path opacity="0.251" d="M15.6422 9.52948L40.0188 23.3795C40.8109 23.8295 41.2547 24.4092 41.3281 25.0014C41.3297 24.3467 40.8922 23.692 40.0188 23.1967L15.6422 9.34667C13.8953 8.35292 12.4656 9.17792 12.4656 11.1795V11.3623C12.4656 9.36073 13.8953 8.53573 15.6422 9.52948Z" fill="white"/>
<path fill-rule="evenodd" clip-rule="evenodd" d="M51.5984 16.25V8.75H53.8922C55.0438 8.75 55.9656 9.09687 56.6578 9.79219C57.3484 10.4875 57.6938 11.3891 57.6938 12.5C57.6938 13.6109 57.3484 14.5125 56.6578 15.2078C55.9656 15.9031 55.0438 16.25 53.8922 16.25H51.5984ZM52.561 15.3281H53.8922C54.7578 15.3281 55.4438 15.0812 55.95 14.5844C56.4563 14.0891 56.7094 13.3938 56.7094 12.5C56.7094 11.6125 56.4563 10.9203 55.95 10.4203C55.4438 9.92188 54.7578 9.67188 53.8922 9.67188H52.561V15.3281Z" fill="white" stroke="white" stroke-width="0.25"/>
<path d="M59.0469 16.25V8.75H60.0094V16.25H59.0469Z" fill="white" stroke="white" stroke-width="0.25"/>
<path d="M63.8422 16.4174C63.2985 16.4174 62.7657 16.2393 62.2469 15.8846C61.725 15.5283 61.3844 15.0283 61.225 14.3861L62.1047 14.0299C62.2094 14.4424 62.4235 14.7893 62.7485 15.0721C63.0735 15.3549 63.4375 15.4955 63.8422 15.4955C64.261 15.4955 64.6203 15.3861 64.9172 15.1658C65.2141 14.9471 65.361 14.6471 65.361 14.2705C65.361 13.8518 65.2141 13.5283 64.9172 13.3018C64.6203 13.0752 64.15 12.8627 63.5079 12.6674C62.8438 12.458 62.3407 12.1877 62 11.8564C61.6578 11.5236 61.486 11.1002 61.486 10.583C61.486 10.0455 61.7 9.57832 62.125 9.17988C62.5516 8.78145 63.1063 8.58301 63.7907 8.58301C64.4266 8.58301 64.9422 8.74238 65.3407 9.05957C65.7391 9.37676 65.9969 9.72363 66.1157 10.1018L65.2375 10.4674C65.1735 10.2314 65.0188 10.0111 64.7703 9.80801C64.5235 9.60645 64.2032 9.50488 63.811 9.50488C63.4407 9.50488 63.125 9.60645 62.8641 9.8127C62.6016 10.0189 62.4703 10.2768 62.4703 10.583C62.4703 10.8627 62.5922 11.0986 62.8313 11.2908C63.0735 11.4814 63.4282 11.6549 63.8953 11.808C64.2657 11.9283 64.5735 12.0424 64.8235 12.1549C65.0703 12.2658 65.3219 12.4143 65.5766 12.6002C65.8313 12.7846 66.0235 13.0158 66.1532 13.2908C66.2813 13.5674 66.3469 13.8861 66.3469 14.2502C66.3469 14.6127 66.2719 14.9377 66.1219 15.2236C65.9719 15.5111 65.7719 15.7377 65.5235 15.9049C65.2766 16.0721 65.0094 16.2002 64.7235 16.2861C64.436 16.3736 64.1438 16.4174 63.8422 16.4174Z" fill="white" stroke="white" stroke-width="0.25"/>
<path fill-rule="evenodd" clip-rule="evenodd" d="M68.6922 16.25H67.7297V8.75H70.2859C70.9203 8.75 71.4703 8.96094 71.9344 9.38281C72.4 9.80625 72.6312 10.3391 72.6312 10.9812C72.6312 11.6234 72.4 12.1562 71.9344 12.5781C71.4703 13.0016 70.9203 13.2125 70.2859 13.2125H68.6922V16.25ZM68.6922 12.2906H70.3062C70.7109 12.2906 71.0359 12.1547 71.2812 11.8828C71.525 11.6094 71.6469 11.3094 71.6469 10.9812C71.6469 10.6531 71.525 10.3531 71.2812 10.0812C71.0359 9.80781 70.7109 9.67188 70.3062 9.67188H68.6922V12.2906Z" fill="white" stroke="white" stroke-width="0.25"/>
<path fill-rule="evenodd" clip-rule="evenodd" d="M79.9797 15.2814C79.2422 16.0393 78.325 16.4174 77.2297 16.4174C76.1328 16.4174 75.2156 16.0393 74.4797 15.2814C73.7422 14.5236 73.375 13.5971 73.375 12.5002C73.375 11.4033 73.7422 10.4768 74.4797 9.71895C75.2156 8.96113 76.1328 8.58301 77.2297 8.58301C78.3187 8.58301 79.2328 8.9627 79.975 9.72363C80.7141 10.4861 81.0844 11.4111 81.0844 12.5002C81.0844 13.5971 80.7156 14.5236 79.9797 15.2814ZM75.1922 14.6533C75.7469 15.2158 76.425 15.4955 77.2297 15.4955C78.0328 15.4955 78.7125 15.2158 79.2656 14.6533C79.8219 14.0908 80.1 13.3736 80.1 12.5002C80.1 11.6268 79.8219 10.9096 79.2656 10.3471C78.7125 9.78457 78.0328 9.50488 77.2297 9.50488C76.425 9.50488 75.7469 9.78457 75.1922 10.3471C74.6375 10.9096 74.3594 11.6268 74.3594 12.5002C74.3594 13.3736 74.6375 14.0908 75.1922 14.6533Z" fill="white" stroke="white" stroke-width="0.25"/>
<path d="M82.436 16.25V8.75H83.6094L87.2547 14.5844H87.2969L87.2547 13.1391V8.75H88.2188V16.25H87.2125L83.4 10.1328H83.3578L83.4 11.5781V16.25H82.436Z" fill="white" stroke="white" stroke-width="0.25"/>
<path d="M89.936 16.25V8.75H90.9V16.25H89.936Z" fill="white" stroke="white" stroke-width="0.25"/>
<path fill-rule="evenodd" clip-rule="evenodd" d="M92.6172 16.25V8.75H95.3297C95.9172 8.75 96.425 8.94375 96.8547 9.33125C97.2844 9.71875 97.4984 10.2062 97.4984 10.7922C97.4984 11.1484 97.4063 11.4625 97.2203 11.7359C97.0359 12.0078 96.7891 12.2141 96.4812 12.3531V12.3953C96.8516 12.5203 97.1563 12.7375 97.3938 13.0438C97.6313 13.3516 97.75 13.7078 97.75 14.1125C97.75 14.7281 97.525 15.2375 97.0734 15.6422C96.6234 16.0469 96.0906 16.25 95.4766 16.25H92.6172ZM93.5797 11.9656H95.3297C95.6937 11.9656 95.9844 11.8453 96.2047 11.6047C96.425 11.3641 96.5344 11.1 96.5344 10.8141C96.5344 10.5281 96.4281 10.2656 96.2141 10.0281C96.0016 9.79063 95.7219 9.67188 95.3719 9.67188H93.5797V11.9656ZM93.5797 15.3281H95.5188C95.8891 15.3281 96.1891 15.1984 96.4203 14.9406C96.65 14.6828 96.7656 14.4 96.7656 14.0922C96.7656 13.7844 96.6469 13.5047 96.4094 13.2484C96.1719 12.9938 95.8609 12.8656 95.4766 12.8656H93.5797V15.3281Z" fill="white" stroke="white" stroke-width="0.25"/>
<path d="M99.0485 16.25V8.75H100.013V15.3281H103.259V16.25H99.0485Z" fill="white" stroke="white" stroke-width="0.25"/>
<path d="M108.853 9.67188H105.438V12.05H108.519V12.95H105.438V15.3281H108.853V16.25H104.475V8.75H108.853V9.67188Z" fill="white" stroke="white" stroke-width="0.25"/>
<path d="M114.678 16.4174C114.133 16.4174 113.602 16.2393 113.081 15.8846C112.559 15.5283 112.219 15.0283 112.059 14.3861L112.939 14.0299C113.044 14.4424 113.258 14.7893 113.583 15.0721C113.909 15.3549 114.272 15.4955 114.678 15.4955C115.097 15.4955 115.455 15.3861 115.752 15.1658C116.048 14.9471 116.197 14.6471 116.197 14.2705C116.197 13.8518 116.048 13.5283 115.752 13.3018C115.455 13.0752 114.986 12.8627 114.344 12.6674C113.68 12.458 113.177 12.1877 112.834 11.8564C112.492 11.5236 112.32 11.1002 112.32 10.583C112.32 10.0455 112.534 9.57832 112.961 9.17988C113.386 8.78145 113.942 8.58301 114.625 8.58301C115.261 8.58301 115.778 8.74238 116.175 9.05957C116.573 9.37676 116.833 9.72363 116.95 10.1018L116.072 10.4674C116.008 10.2314 115.853 10.0111 115.606 9.80801C115.358 9.60645 115.038 9.50488 114.645 9.50488C114.277 9.50488 113.959 9.60645 113.698 9.8127C113.436 10.0189 113.306 10.2768 113.306 10.583C113.306 10.8627 113.427 11.0986 113.667 11.2908C113.909 11.4814 114.263 11.6549 114.73 11.808C115.1 11.9283 115.409 12.0424 115.658 12.1549C115.906 12.2658 116.158 12.4143 116.411 12.6002C116.666 12.7846 116.858 13.0158 116.988 13.2908C117.117 13.5674 117.181 13.8861 117.181 14.2502C117.181 14.6127 117.106 14.9377 116.956 15.2236C116.806 15.5111 116.606 15.7377 116.359 15.9049C116.111 16.0721 115.845 16.2002 115.558 16.2861C115.27 16.3736 114.978 16.4174 114.678 16.4174Z" fill="white" stroke="white" stroke-width="0.25"/>
<path d="M121.172 16.4172C120.347 16.4172 119.68 16.1453 119.166 15.6C118.653 15.0562 118.395 14.3437 118.395 13.4641V8.75H119.359V13.5063C119.359 14.0984 119.514 14.5781 119.825 14.9469C120.136 15.3125 120.584 15.4953 121.172 15.4953C121.758 15.4953 122.206 15.3125 122.517 14.9469C122.828 14.5781 122.983 14.0984 122.983 13.5063V8.75H123.948V13.4641C123.948 14.35 123.697 15.0641 123.198 15.6062C122.698 16.1469 122.023 16.4172 121.172 16.4172Z" fill="white" stroke="white" stroke-width="0.25"/>
<path fill-rule="evenodd" clip-rule="evenodd" d="M125.498 16.25V8.75H128.055C128.689 8.75 129.239 8.96094 129.703 9.38281C130.169 9.80625 130.4 10.3391 130.4 10.9812C130.4 11.5047 130.23 11.9672 129.886 12.3688C129.545 12.7703 129.119 13.0234 128.608 13.1281L128.587 13.1594L130.694 16.2078V16.25H129.552L127.531 13.2125H126.461V16.25H125.498ZM126.461 12.3109H128.011C128.395 12.3109 128.725 12.1859 129.002 11.9344C129.278 11.6828 129.416 11.3656 129.416 10.9812C129.416 10.6531 129.294 10.3531 129.048 10.0812C128.805 9.80781 128.48 9.67188 128.075 9.67188H126.461V12.3109Z" fill="white" stroke="white" stroke-width="0.25"/>
</g>
<defs>
<linearGradient id="paint0_linear_9_269" x1="17.6469" y1="1.28402" x2="-3.33124" y2="22.2622" gradientUnits="userSpaceOnUse">
<stop stop-color="#43A1D8"/>
<stop offset="0.007" stop-color="#43A1D8"/>
<stop offset="0.26" stop-color="#4BC6EF"/>
<stop offset="0.512" stop-color="#5AD3EE"/>
<stop offset="0.76" stop-color="#5AD3EE"/>
<stop offset="1" stop-color="#5ED4ED"/>
</linearGradient>
<linearGradient id="paint1_linear_9_269" x1="41.8378" y1="17.1555" x2="12.5988" y2="17.1555" gradientUnits="userSpaceOnUse">
<stop stop-color="#FFDC3B"/>
<stop offset="0.409" stop-color="#FFB931"/>
<stop offset="0.775" stop-color="#FF9829"/>
<stop offset="1" stop-color="#FF9829"/>
</linearGradient>
<linearGradient id="paint2_linear_9_269" x1="26.4614" y1="23.4802" x2="-1.65702" y2="51.5987" gradientUnits="userSpaceOnUse">
<stop stop-color="#FF4241"/>
<stop offset="1" stop-color="#CF2B64"/>
</linearGradient>
<linearGradient id="paint3_linear_9_269" x1="4.78751" y1="4.86366" x2="17.3436" y2="17.4198" gradientUnits="userSpaceOnUse">
<stop stop-color="#38A872"/>
<stop offset="0.069" stop-color="#38AE72"/>
<stop offset="0.476" stop-color="#4CBF73"/>
<stop offset="0.801" stop-color="#5AC26D"/>
<stop offset="1" stop-color="#61C36C"/>
</linearGradient>
<clipPath id="clip0_9_269">
<rect width="168.75" height="50" fill="white"/>
</clipPath>
</defs>
</svg>
