<svg width="24" height="24" viewBox="0 0 24 24" fill="none" xmlns="http://www.w3.org/2000/svg">
<path d="M17.9999 21C17.9999 18.8783 17.157 16.8434 15.6567 15.3431C14.1564 13.8429 12.1216 13 9.99988 13C7.87815 13 5.84331 13.8429 4.34302 15.3431C2.84273 16.8434 1.99988 18.8783 1.99988 21" stroke="#009DE0" stroke-width="2" stroke-linecap="round" stroke-linejoin="round"/>
<path d="M9.99988 13C12.7613 13 14.9999 10.7614 14.9999 8C14.9999 5.23858 12.7613 3 9.99988 3C7.23845 3 4.99988 5.23858 4.99988 8C4.99988 10.7614 7.23845 13 9.99988 13Z" stroke="#009DE0" stroke-width="2" stroke-linecap="round" stroke-linejoin="round"/>
<path d="M22 19.9999C22 16.6299 20 13.5 18 12C18.6575 11.5067 19.1832 10.859 19.5306 10.1142C19.8781 9.3694 20.0366 8.55042 19.9921 7.72975C19.9476 6.90908 19.7015 6.11204 19.2755 5.40915C18.8496 4.70626 18.2569 4.11921 17.55 3.69995" stroke="#009DE0" stroke-width="2" stroke-linecap="round" stroke-linejoin="round"/>
</svg>
