<svg width="24" height="24" viewBox="0 0 24 24" fill="none" xmlns="http://www.w3.org/2000/svg">
<path d="M19.9999 13C19.9999 18 16.4999 20.5 12.3399 21.95C12.1221 22.0238 11.8855 22.0202 11.6699 21.94C7.49994 20.5 3.99994 18 3.99994 13V5.99996C3.99994 5.73474 4.1053 5.48039 4.29283 5.29285C4.48037 5.10532 4.73472 4.99996 4.99994 4.99996C6.99994 4.99996 9.49994 3.79996 11.2399 2.27996C11.4518 2.09896 11.7213 1.99951 11.9999 1.99951C12.2786 1.99951 12.5481 2.09896 12.7599 2.27996C14.5099 3.80996 16.9999 4.99996 18.9999 4.99996C19.2652 4.99996 19.5195 5.10532 19.707 5.29285C19.8946 5.48039 19.9999 5.73474 19.9999 5.99996V13Z" stroke="#009DE0" stroke-width="2" stroke-linecap="round" stroke-linejoin="round"/>
<path d="M9 12L11 14L15 10" stroke="#009DE0" stroke-width="2" stroke-linecap="round" stroke-linejoin="round"/>
</svg>
