<svg width="20" height="23" viewBox="0 0 20 23" fill="none" xmlns="http://www.w3.org/2000/svg">
<path d="M9.10571 1.01074C9.71965 1.01074 10.2961 1.14551 10.8352 1.41504C11.3892 1.69954 11.8647 2.08512 12.2615 2.57178C12.6583 3.05843 12.9765 3.6237 13.2161 4.26758C13.4556 4.91146 13.5754 5.60026 13.5754 6.33398C13.5754 7.08268 13.4556 7.77897 13.2161 8.42285C12.9765 9.06673 12.6583 9.632 12.2615 10.1187C11.8647 10.6053 11.3892 10.9834 10.8352 11.2529C10.2961 11.5374 9.71965 11.6797 9.10571 11.6797C8.49178 11.6797 7.91528 11.5374 7.37622 11.2529C6.83716 10.9834 6.36548 10.6053 5.96118 10.1187C5.55688 9.632 5.23494 9.06673 4.99536 8.42285C4.77075 7.77897 4.65845 7.08268 4.65845 6.33398C4.65845 5.60026 4.77075 4.91146 4.99536 4.26758C5.23494 3.6237 5.55688 3.05843 5.96118 2.57178C6.36548 2.08512 6.83716 1.69954 7.37622 1.41504C7.91528 1.14551 8.49178 1.01074 9.10571 1.01074ZM13.5081 11.0957L13.5979 11.1406C14.1669 11.5299 14.6685 11.9717 15.1028 12.4658C15.552 12.96 15.9338 13.4953 16.2483 14.0718C16.5627 14.6483 16.8023 15.2585 16.967 15.9023C17.1318 16.5612 17.2141 17.2275 17.2141 17.9014C17.2141 18.5003 16.982 19.0431 16.5178 19.5298C16.0536 20.0164 15.3798 20.4245 14.4963 20.7539C13.7776 21.0234 12.954 21.2256 12.0256 21.3604C11.0972 21.4951 10.1239 21.5625 9.10571 21.5625C8.08748 21.5625 7.11418 21.4951 6.18579 21.3604C5.25741 21.2256 4.43384 21.0234 3.71509 20.7539C2.83162 20.4245 2.16154 20.0164 1.70483 19.5298C1.24813 19.0431 1.01978 18.5003 1.01978 17.9014C1.01978 17.2275 1.09465 16.5612 1.24438 15.9023C1.4091 15.2585 1.64868 14.6483 1.96313 14.0718C2.27759 13.4953 2.65942 12.96 3.10864 12.4658C3.55786 11.9717 4.06698 11.5299 4.63599 11.1406L4.70337 11.0957L4.74829 11.1631C4.85311 11.2829 4.95418 11.3952 5.05151 11.5C5.14884 11.6048 5.25741 11.7021 5.3772 11.792L5.46704 11.8818L5.35474 11.9492C4.84562 12.2786 4.3964 12.6605 4.00708 13.0947C3.60278 13.529 3.25838 14.0044 2.97388 14.521C2.68937 15.0376 2.47225 15.5804 2.32251 16.1494C2.17277 16.7184 2.0979 17.3024 2.0979 17.9014C2.0979 18.2607 2.27384 18.6014 2.62573 18.9233C2.97762 19.2453 3.49048 19.526 4.16431 19.7656C4.82316 20.0052 5.5756 20.1849 6.42163 20.3047C7.26766 20.4245 8.16235 20.4844 9.10571 20.4844C10.0491 20.4844 10.9475 20.4245 11.801 20.3047C12.6545 20.1849 13.4032 20.0052 14.0471 19.7656C14.7209 19.526 15.2375 19.2453 15.5969 18.9233C15.9563 18.6014 16.136 18.2607 16.136 17.9014C16.136 17.3024 16.0611 16.7184 15.9114 16.1494C15.7467 15.5804 15.5258 15.0376 15.2488 14.521C14.9718 14.0044 14.6311 13.529 14.2268 13.0947C13.8225 12.6605 13.3658 12.2786 12.8567 11.9492L12.7444 11.8818L12.8567 11.792C12.9615 11.7021 13.0626 11.6048 13.1599 11.5C13.2572 11.3952 13.3583 11.2829 13.4631 11.1631L13.5081 11.0957ZM5.73657 6.33398C5.73657 7.51693 6.066 8.52393 6.72485 9.35498C7.38371 10.186 8.17733 10.6016 9.10571 10.6016C10.0491 10.6016 10.8502 10.186 11.509 9.35498C12.1679 8.52393 12.4973 7.51693 12.4973 6.33398C12.4973 5.16602 12.1679 4.1665 11.509 3.33545C10.8502 2.50439 10.0491 2.08887 9.10571 2.08887C8.17733 2.08887 7.38371 2.50439 6.72485 3.33545C6.066 4.1665 5.73657 5.16602 5.73657 6.33398Z" fill="#009DE0"/>
</svg>
